<svg xmlns="http://www.w3.org/2000/svg" xmlns:xlink="http://www.w3.org/1999/xlink" width="18.21" height="18.208" viewBox="0 0 18.21 18.208">
  <defs>
    <clipPath id="clip-path">
      <rect id="Rectangle_6076" data-name="Rectangle 6076" width="18.21" height="18.208" fill="#bfbfbf"/>
    </clipPath>
  </defs>
  <g id="Group_13319" data-name="Group 13319" clip-path="url(#clip-path)">
    <path id="Path_14765" data-name="Path 14765" d="M17.237,5.466c-.8,0-1.608,0-2.412,0h-.257V5.2c0-1.1,0-2.2,0-3.307A1.807,1.807,0,0,0,12.691,0Q7.281,0,1.871,0A1.794,1.794,0,0,0,0,1.873Q0,8.669,0,15.464A2.693,2.693,0,0,0,2.736,18.2q6.369.014,12.738,0a2.7,2.7,0,0,0,2.73-2.739c.009-3.008,0-6.017,0-9.025a.9.9,0,0,0-.97-.972M13.49,15.8a1.337,1.337,0,0,1-1.335,1.336H2.414A1.337,1.337,0,0,1,1.079,15.8V2.407A1.336,1.336,0,0,1,2.414,1.071h9.74A1.337,1.337,0,0,1,13.49,2.407Zm2.9-.438a.934.934,0,0,1-1.035,1.027h-.777V7.29h1.8c0,.077.012.151.012.226q0,3.924,0,7.848" transform="translate(0 0)" fill="#bfbfbf"/>
    <path id="Path_14766" data-name="Path 14766" d="M12.4,1.568H2.66A1.084,1.084,0,0,0,1.578,2.651v13.4A1.083,1.083,0,0,0,2.66,17.128H12.4a1.084,1.084,0,0,0,1.082-1.082V2.651A1.085,1.085,0,0,0,12.4,1.568M4.386,3.885c.441,0,.88,0,1.321,0s.88,0,1.321,0a.912.912,0,1,1,.013,1.822q-1.332.013-2.663,0a.912.912,0,1,1,.008-1.822m6.64,11.32a1.2,1.2,0,0,1-.375.062q-3.125.005-6.249,0a.911.911,0,0,1-.248-1.8,1.386,1.386,0,0,1,.3-.022H7.542c1.059,0,2.119,0,3.178,0a.906.906,0,0,1,.306,1.759m-.383-3.127H7.529c-1.059,0-2.118,0-3.177,0a.9.9,0,0,1-.895-.708.889.889,0,0,1,.5-1.021,1.211,1.211,0,0,1,.455-.089q3.114-.008,6.227,0a.914.914,0,1,1,0,1.823m.919-3.766a.859.859,0,0,1-.78.57c-.156.011-.313.005-.469.006H4.428a.913.913,0,0,1-.946-.613A.9.9,0,0,1,4.3,7.08c.34-.014.682-.005,1.023-.005H7.538c1.059,0,2.119-.008,3.177,0a.9.9,0,0,1,.847,1.235" transform="translate(-0.246 -0.244)" fill="#bfbfbf"/>
  </g>
</svg>
