<svg xmlns="http://www.w3.org/2000/svg" xmlns:xlink="http://www.w3.org/1999/xlink" width="25.36" height="21.229" viewBox="0 0 25.36 21.229">
  <defs>
    <clipPath id="clip-path">
      <rect id="Rectangle_1303" data-name="Rectangle 1303" width="25.36" height="21.229" fill="#bfbfbf"/>
    </clipPath>
  </defs>
  <g id="Group_5362" data-name="Group 5362" clip-path="url(#clip-path)">
    <path id="Path_7712" data-name="Path 7712" d="M12.67,16.907q-5.2,0-10.391,0A2.127,2.127,0,0,1,0,14.64Q0,8.451,0,2.262A2.128,2.128,0,0,1,2.263,0Q12.678,0,23.095,0A2.126,2.126,0,0,1,25.36,2.258q0,6.2,0,12.4a2.12,2.12,0,0,1-2.249,2.245q-5.22,0-10.441,0m.008-15.235H2.442c-.563,0-.719.156-.72.72v12.12c0,.574.163.735.737.735H22.906c.568,0,.733-.164.733-.738V2.413c0-.595-.148-.741-.75-.741H12.678" transform="translate(0 0)" fill="#bfbfbf"/>
    <path id="Path_7713" data-name="Path 7713" d="M11.647,18.857c-1.391,0-2.784,0-4.175,0a.816.816,0,0,1-.885-.719.757.757,0,0,1,.781-.855.547.547,0,0,0,.644-.465c.144-.457.351-.894.52-1.343a.587.587,0,0,1,.611-.413q2.5,0,5,0a.6.6,0,0,1,.625.432c.19.506.406,1,.584,1.512a.337.337,0,0,0,.41.27,1.061,1.061,0,0,1,.4.045.763.763,0,0,1,.538.788.772.772,0,0,1-.6.715,1.6,1.6,0,0,1-.358.034q-2.049,0-4.1,0" transform="translate(1.036 2.371)" fill="#bfbfbf"/>
    <path id="Path_7714" data-name="Path 7714" d="M21.634,12.954v.522H3.3c-.48,0-.676-.181-.676-.635q0-4.9,0-9.8c0-.067.008-.133.014-.216h.5c.006.105.016.212.016.318q0,4.528,0,9.054c0,.6.161.759.767.759.087,0,.172,0,.257,0a.551.551,0,0,0,.611-.63c0-.645,0-1.289,0-1.934,0-1.419,0-2.838,0-4.256A.526.526,0,0,1,5.5,5.573a.483.483,0,0,1,.336.444c.012.189.008.378.008.567v5.623c0,.587.162.747.753.747.155,0,.309,0,.464,0a.549.549,0,0,0,.609-.606c.006-.792,0-1.582,0-2.374,0-.593,0-1.186,0-1.779a.527.527,0,1,1,1.045,0c0,1.351,0,2.7,0,4.05,0,.53.181.706.715.707.163,0,.328,0,.491,0a.547.547,0,0,0,.619-.62c.006-.593,0-1.186,0-1.779a1.1,1.1,0,0,1,.046-.355.505.505,0,0,1,.567-.3.511.511,0,0,1,.438.525c.006.619,0,1.238,0,1.856,0,.488.184.674.667.676.171,0,.344,0,.515,0,.442,0,.632-.189.633-.626,0-.852,0-1.7,0-2.554a1.729,1.729,0,0,1,.01-.257.534.534,0,0,1,.527-.471.527.527,0,0,1,.519.481,4.971,4.971,0,0,1,.008.542c0,.756,0,1.513,0,2.27,0,.419.2.61.619.616.215,0,.431.006.645,0a.527.527,0,0,0,.549-.556c.007-.179-.006-.361,0-.541a.531.531,0,0,1,.523-.531.521.521,0,0,1,.525.5c.019.2,0,.4.014.593a.518.518,0,0,0,.538.537c.225.008.447,0,.671,0a.546.546,0,0,0,.606-.608c0-.946,0-1.891,0-2.837,0-.637,0-1.272,0-1.909,0-.369.2-.61.51-.619s.537.234.538.618q0,2.309,0,4.617c0,.568.169.738.736.738h.675" transform="translate(0.413 0.444)" fill="#bfbfbf"/>
    <path id="Path_7715" data-name="Path 7715" d="M4.352,3.61a.687.687,0,0,1,.588-.678.647.647,0,0,1,.765.527,1.033,1.033,0,0,0,.543.788c.316.206.62.432.922.659a.636.636,0,0,0,.556.119.676.676,0,0,1,.887.635.808.808,0,0,0,.343.6c.377.284.745.58,1.112.878a.734.734,0,0,0,.6.156.942.942,0,0,1,.509.1.743.743,0,0,0,.639.071,4.019,4.019,0,0,1,.493-.146,1.006,1.006,0,0,0,.8-.571.635.635,0,0,1,.733-.3.668.668,0,0,1,.525.6.814.814,0,0,0,.378.661c.381.279.747.579,1.123.866A.751.751,0,0,0,16.9,8.395c.612-.994,1.226-1.99,1.811-3a.971.971,0,0,0,.034-.587.713.713,0,0,1,.56-.87.7.7,0,0,1,.809.61.663.663,0,0,1-.528.745.84.84,0,0,0-.615.449Q18.153,7.128,17.307,8.5a.755.755,0,0,0-.1.659.69.69,0,1,1-1.345.245.741.741,0,0,0-.31-.564c-.392-.293-.766-.613-1.169-.891a1.494,1.494,0,0,0-.521-.144,3.173,3.173,0,0,1-.583-.113.767.767,0,0,0-.591-.066,4.234,4.234,0,0,1-.544.157.989.989,0,0,0-.772.562.613.613,0,0,1-.706.309.638.638,0,0,1-.547-.573A.969.969,0,0,0,9.645,7.3c-.346-.253-.663-.549-1.019-.788a.894.894,0,0,0-.542-.139.692.692,0,0,1-.847-.615.785.785,0,0,0-.365-.587c-.343-.228-.678-.47-1-.722a.78.78,0,0,0-.7-.155.676.676,0,0,1-.821-.687" transform="translate(0.685 0.461)" fill="#bfbfbf"/>
  </g>
</svg>
