<svg xmlns="http://www.w3.org/2000/svg" width="31.588" height="31.588" viewBox="0 0 31.588 31.588">
  <g id="Group_7951" data-name="Group 7951" transform="translate(21.522 0) rotate(45)">
    <g id="Group_7953" data-name="Group 7953" transform="translate(0 0)">
      <path id="Path_12312" data-name="Path 12312" d="M8.131,29.283c-1.046-.958-2.078-3.157-2.923-6.213a11.526,11.526,0,0,0-3.416-6.264A11.938,11.938,0,0,1,.2,14.66a1.3,1.3,0,0,1-.2-.693,1.341,1.341,0,0,1,.562-1.078A7.333,7.333,0,0,0,3.91,6.817,10.057,10.057,0,0,0,2.583,2.1a1.083,1.083,0,0,1-.138-.527A1.149,1.149,0,0,1,3.127.546,8.232,8.232,0,0,1,6.935,0c2.459.036,3.389.718,3.446.775L12,1.068a1.138,1.138,0,0,1,.978,1.088v.188l.776.144a.586.586,0,0,1,.479.576V3.9a.586.586,0,0,1-.479.576l-.776.144v1.13l.776.112a.5.5,0,0,1,.479.448V6.97a.5.5,0,0,1-.479.448l-.776.112v.349a8.024,8.024,0,0,0-1.077,4.09,11.067,11.067,0,0,0,.837,4.017,3.225,3.225,0,0,1,.24,1.219v1.2l.776.112a.5.5,0,0,1,.479.448v.655a.5.5,0,0,1-.479.448l-.776.112v2.069l.776.144a.586.586,0,0,1,.479.576v.842a.586.586,0,0,1-.479.576l-.776.144V26.6l.776.112a.5.5,0,0,1,.479.448v.655a.5.5,0,0,1-.479.448l-.776.112v.36a1.717,1.717,0,0,1-1.518,1.7,5.129,5.129,0,0,1-3.331-1.154m3.172-.551V17.2a1.545,1.545,0,0,0-.116-.586,12.8,12.8,0,0,1-.961-4.651A9.961,9.961,0,0,1,11.3,7.437V2.646l-1.217-.217-.516-.092-.247-.246A5.913,5.913,0,0,0,6.911,1.68a9.444,9.444,0,0,0-2.556.193A11.351,11.351,0,0,1,5.587,6.817,8.993,8.993,0,0,1,1.8,14.054a9.06,9.06,0,0,0,1.188,1.576l.125.129,4.281-2.4a.644.644,0,1,1,.63,1.124L4,16.739q.338.4.616.781L7.4,16a.644.644,0,1,1,.617,1.131L5.327,18.6c.144.246.271.486.386.721L7.4,18.4a.644.644,0,1,1,.617,1.131l-1.808.986c.2.566.345,1.109.49,1.647.041.152.082.3.124.459,1.1,3.964,2.144,5.153,2.44,5.423a3.43,3.43,0,0,0,2.031.711.04.04,0,0,0,.009-.025" fill="#707070"/>
    </g>
  </g>
</svg>
