<svg id="Group_12348" data-name="Group 12348" xmlns="http://www.w3.org/2000/svg" xmlns:xlink="http://www.w3.org/1999/xlink" width="15.567" height="12.276" viewBox="0 0 15.567 12.276">
  <defs>
    <clipPath id="clip-path">
      <rect id="Rectangle_2920" data-name="Rectangle 2920" width="15.567" height="12.276" fill="#502464"/>
    </clipPath>
  </defs>
  <g id="Group_7883" data-name="Group 7883" transform="translate(0 0)" clip-path="url(#clip-path)">
    <path id="Path_12299" data-name="Path 12299" d="M0,138.686c.066,0,.132,0,.2,0H15.559c0,.06.008.109.008.158q0,1.322,0,2.645a.472.472,0,0,1-.532.534q-7.251,0-14.5,0A.516.516,0,0,1,0,141.666Z" transform="translate(0 -129.752)" fill="#502464"/>
    <path id="Path_12300" data-name="Path 12300" d="M0,66.054a4.8,4.8,0,0,1,.275-.731,1.856,1.856,0,0,1,1.4-.944c.023,0,.045-.011.08-.02-.694-.322-.938-.72-.8-1.293a1.025,1.025,0,0,1,1.034-.775,1.041,1.041,0,0,1,.988.891,1.075,1.075,0,0,1-.832,1.174,2.013,2.013,0,0,1,1.754,1.713,2.01,2.01,0,0,1,1.755-1.712c-.68-.286-.929-.681-.812-1.264a1.019,1.019,0,0,1,1.026-.8,1.038,1.038,0,0,1,.995.865c.1.521-.191.952-.823,1.2a2.02,2.02,0,0,1,1.754,1.679,2.029,2.029,0,0,1,1.739-1.683,1.072,1.072,0,0,1-.693-.514,1.054,1.054,0,0,1-.073-.867,1.023,1.023,0,0,1,1.042-.68,1.04,1.04,0,0,1,.95.88c.087.507-.188.91-.833,1.191a1.988,1.988,0,0,1,1.162.543,2.047,2.047,0,0,1,.589,1.132,2.041,2.041,0,0,1,1.746-1.69,1.062,1.062,0,0,1-.678-.485,1.048,1.048,0,0,1-.1-.835,1.017,1.017,0,0,1,1.016-.738,1.035,1.035,0,0,1,.98.826c.112.538-.133.922-.813,1.248a1.958,1.958,0,0,1,1.409.847,1.9,1.9,0,0,1,.338,1.091H.106c-.035,0-.071,0-.106,0v-.243" transform="translate(0 -58.276)" fill="#502464"/>
    <path id="Path_12301" data-name="Path 12301" d="M33.714,3.109A1.965,1.965,0,0,1,35.268,2.07a1.046,1.046,0,0,1-.766-.584,1.066,1.066,0,0,1-.065-.712A1.026,1.026,0,0,1,35.459,0a1.037,1.037,0,0,1,.981.805c.124.559-.115.925-.836,1.272a1.926,1.926,0,0,1,1.549,1.027,2.005,2.005,0,0,0-1.717,1.726,2.01,2.01,0,0,0-1.721-1.726" transform="translate(-31.542 -0.003)" fill="#502464"/>
    <path id="Path_12302" data-name="Path 12302" d="M94.12,3.106a1.966,1.966,0,0,1,1.554-1.039,1.052,1.052,0,0,1-.752-.56A1.073,1.073,0,0,1,94.838.8a1.022,1.022,0,0,1,1-.8,1.042,1.042,0,0,1,1,.778,1.015,1.015,0,0,1-.141.828,1.128,1.128,0,0,1-.686.464,1.95,1.95,0,0,1,1.545,1.035,2,2,0,0,0-1.717,1.724A2.009,2.009,0,0,0,94.12,3.106" transform="translate(-88.057 0)" fill="#502464"/>
    <path id="Path_12303" data-name="Path 12303" d="M156.42,2.072a1.952,1.952,0,0,1,1.546,1.035,2.005,2.005,0,0,0-1.717,1.726,2.009,2.009,0,0,0-1.722-1.726,1.969,1.969,0,0,1,1.555-1.039,1.049,1.049,0,0,1-.759-.572,1.072,1.072,0,0,1-.075-.711A1.024,1.024,0,0,1,156.258,0a1.041,1.041,0,0,1,.993.792,1.013,1.013,0,0,1-.143.813,1.125,1.125,0,0,1-.687.465" transform="translate(-144.571 -0.002)" fill="#502464"/>
  </g>
</svg>
