<svg xmlns="http://www.w3.org/2000/svg" xmlns:xlink="http://www.w3.org/1999/xlink" width="14.208" height="13.98" viewBox="0 0 14.208 13.98">
  <defs>
    <clipPath id="clip-path">
      <rect id="Rectangle_6079" data-name="Rectangle 6079" width="14.208" height="13.98" fill="#bfbfbf"/>
    </clipPath>
  </defs>
  <g id="Group_13324" data-name="Group 13324" transform="translate(0 0)">
    <g id="Group_13323" data-name="Group 13323" transform="translate(0 0)" clip-path="url(#clip-path)">
      <path id="Path_14772" data-name="Path 14772" d="M20.761,13.657a1.324,1.324,0,0,0-.085.121l-1.33,2.487c-.023.043-.05.084-.085.142L19,15.928c-.391-.732-.783-1.463-1.171-2.2a.515.515,0,0,1-.059-.233q0-3.713,0-7.428c0-.044,0-.089.007-.146h2.983Z" transform="translate(-6.554 -2.427)" fill="#bfbfbf"/>
      <path id="Path_14773" data-name="Path 14773" d="M20.761,2.1H17.772c0-.114,0-.216,0-.318A4.22,4.22,0,0,1,17.8,1.16,1.425,1.425,0,0,1,19,.025.466.466,0,0,0,19.067,0h.409c.031.009.061.021.093.028a1.453,1.453,0,0,1,1.12.943c.028.076.049.154.073.23Z" transform="translate(-6.553 -0.001)" fill="#bfbfbf"/>
      <path id="Path_14774" data-name="Path 14774" d="M6.366,2.376a.939.939,0,0,0-.636-.241H1.762a.873.873,0,0,0-.905.836v9.806a.874.874,0,0,0,.905.836H8.476a.874.874,0,0,0,.906-.836v-7.3a.813.813,0,0,0-.27-.6Zm-3.061,2h1.5a.692.692,0,1,1,0,1.382h-1.5a.692.692,0,1,1,0-1.382m0,2.8H6.39a.692.692,0,1,1,0,1.382H3.306a.692.692,0,1,1,0-1.382m0,2.435H8a.692.692,0,1,1,0,1.382h-4.7a.692.692,0,1,1,0-1.382" transform="translate(-0.316 -0.875)" fill="#bfbfbf"/>
      <path id="Path_14775" data-name="Path 14775" d="M9.341,4.326q-1.5-1.392-2.985-2.792a1.237,1.237,0,0,0-.888-.348c-1.432,0-2.863,0-4.294,0a1.464,1.464,0,0,0-.415.057A1.036,1.036,0,0,0,0,2.3Q0,4.887,0,7.476t0,5.192a1.076,1.076,0,0,0,1.177,1.106q3.68,0,7.361,0a1.076,1.076,0,0,0,1.178-1.106q0-3.744,0-7.487a1.113,1.113,0,0,0-.379-.855m-.118,8.062a1.027,1.027,0,0,1-1.064.984H1.446a1.027,1.027,0,0,1-1.064-.984V2.583A1.027,1.027,0,0,1,1.446,1.6H5.414a1.1,1.1,0,0,1,.745.283l2.746,2.5a.956.956,0,0,1,.318.7Z" transform="translate(0 -0.486)" fill="#bfbfbf"/>
    </g>
  </g>
</svg>
