<svg xmlns="http://www.w3.org/2000/svg" xmlns:xlink="http://www.w3.org/1999/xlink" width="12.288" height="13.457" viewBox="0 0 12.288 13.457">
  <defs>
    <clipPath id="clip-path">
      <rect id="Rectangle_2814" data-name="Rectangle 2814" width="12.288" height="13.457" fill="#502464"/>
    </clipPath>
  </defs>
  <g id="Group_7496" data-name="Group 7496" clip-path="url(#clip-path)">
    <path id="Path_11983" data-name="Path 11983" d="M202.278,2.33a.617.617,0,0,0,.617-.617V.617a.617.617,0,0,0-1.233,0v1.1a.617.617,0,0,0,.617.617" transform="translate(-198.852)" fill="#502464"/>
    <path id="Path_11984" data-name="Path 11984" d="M592.481,2.33a.617.617,0,0,0,.617-.617V.617a.617.617,0,1,0-1.233,0v1.1a.617.617,0,0,0,.617.617" transform="translate(-583.619)" fill="#502464"/>
    <path id="Path_11985" data-name="Path 11985" d="M10.989,83.941H9.844v.544a.982.982,0,1,1-1.964-.011v-.533H4.408v.533a.982.982,0,1,1-1.964.011v-.544H1.3A1.3,1.3,0,0,0,0,85.24V94.93a1.3,1.3,0,0,0,1.3,1.3H9.574a.663.663,0,0,0,.469-.194l2.05-2.05a.663.663,0,0,0,.194-.469V85.24a1.3,1.3,0,0,0-1.3-1.3m.385,9.279h-.852a1.3,1.3,0,0,0-1.3,1.3v.8H1.3a.385.385,0,0,1-.385-.385V87.111H11.374Z" transform="translate(0 -82.772)" fill="#502464"/>
    <path id="Path_11986" data-name="Path 11986" d="M582.4,549.285h2.094a.119.119,0,0,0,.119-.119v-1.461a.119.119,0,0,0-.119-.119H582.4a.119.119,0,0,0-.119.119v1.461a.119.119,0,0,0,.119.119" transform="translate(-574.167 -539.958)" fill="#502464"/>
    <path id="Path_11987" data-name="Path 11987" d="M357.393,549.285h2.094a.119.119,0,0,0,.119-.119v-1.461a.119.119,0,0,0-.119-.119h-2.094a.119.119,0,0,0-.119.119v1.461a.119.119,0,0,0,.119.119" transform="translate(-352.297 -539.958)" fill="#502464"/>
    <path id="Path_11988" data-name="Path 11988" d="M132.388,549.285h2.094a.119.119,0,0,0,.119-.119v-1.461a.119.119,0,0,0-.119-.119h-2.094a.119.119,0,0,0-.119.119v1.461a.119.119,0,0,0,.119.119" transform="translate(-130.426 -539.958)" fill="#502464"/>
    <path id="Path_11989" data-name="Path 11989" d="M357.393,713.23h2.094a.119.119,0,0,0,.119-.119V711.65a.119.119,0,0,0-.119-.119h-2.094a.119.119,0,0,0-.119.119v1.461a.119.119,0,0,0,.119.119" transform="translate(-352.297 -701.619)" fill="#502464"/>
    <path id="Path_11990" data-name="Path 11990" d="M132.388,713.23h2.094a.119.119,0,0,0,.119-.119V711.65a.119.119,0,0,0-.119-.119h-2.094a.119.119,0,0,0-.119.119v1.461a.119.119,0,0,0,.119.119" transform="translate(-130.426 -701.619)" fill="#502464"/>
    <path id="Path_11991" data-name="Path 11991" d="M582.4,385.341h2.094a.119.119,0,0,0,.119-.119v-1.461a.119.119,0,0,0-.119-.119H582.4a.119.119,0,0,0-.119.119v1.461a.119.119,0,0,0,.119.119" transform="translate(-574.167 -378.297)" fill="#502464"/>
    <path id="Path_11992" data-name="Path 11992" d="M357.393,385.341h2.094a.119.119,0,0,0,.119-.119v-1.461a.119.119,0,0,0-.119-.119h-2.094a.119.119,0,0,0-.119.119v1.461a.119.119,0,0,0,.119.119" transform="translate(-352.297 -378.297)" fill="#502464"/>
  </g>
</svg>
