<svg xmlns="http://www.w3.org/2000/svg" xmlns:xlink="http://www.w3.org/1999/xlink" width="18.52" height="20.343" viewBox="0 0 18.52 20.343">
  <defs>
    <clipPath id="clip-path">
      <rect id="Rectangle_1301" data-name="Rectangle 1301" width="18.52" height="20.343" fill="#bfbfbf"/>
    </clipPath>
  </defs>
  <g id="Group_5358" data-name="Group 5358" clip-path="url(#clip-path)">
    <path id="Path_7709" data-name="Path 7709" d="M9.622,19.288H4.87v-.82C6.7,17.07,8.139,15.28,8.2,13.214c-.281,0-.511-.175-.511-.387s.232-.386.516-.386h2.462c.283,0,.515.174.515.386s-.232.387-.515.387h-.043c.066,2.066,1.5,3.856,3.335,5.254v.82ZM7.421,1.776a22.866,22.866,0,0,1-.409,3.691,18.3,18.3,0,0,1-.931,3.2,1.175,1.175,0,0,0,.312.38,2.624,2.624,0,0,0,.868.451l-.278.891a3.578,3.578,0,0,1-1.19-.625,1.961,1.961,0,0,1-.662-.984l-.042-.154.059-.144a17.4,17.4,0,0,0,.946-3.195,22,22,0,0,0,.394-3.542ZM4.727,3.091,3.6,2.785l.182-.667H1.362A8.4,8.4,0,0,0,2.623,5.189,8.137,8.137,0,0,0,4.546,7.168a19.01,19.01,0,0,0,.742-5.2c-.08-.021-.159-.043-.235-.067ZM3.624.947H0l.091.665A9.819,9.819,0,0,0,1.659,5.843a9.381,9.381,0,0,0,2.5,2.482q-.15.4-.313.778c2.075,3.949,8.747,3.949,10.822,0q-.162-.379-.311-.776a9.4,9.4,0,0,0,2.5-2.484,9.809,9.809,0,0,0,1.566-4.231L18.52.947H14.892A3.652,3.652,0,0,0,15.454,0H3.061a3.654,3.654,0,0,0,.563.947m9.844.95.325,1.194,1.125-.306-.182-.667h2.423A8.39,8.39,0,0,1,15.9,5.189,8.125,8.125,0,0,1,13.97,7.171a19.028,19.028,0,0,1-.742-5.206c.082-.021.161-.043.239-.068M4.033,19.5H14.677c.309,0,.563.189.563.421s-.253.422-.563.422H4.033c-.309,0-.563-.19-.563-.422s.253-.421.563-.421" transform="translate(0 0)" fill="#bfbfbf" fill-rule="evenodd"/>
  </g>
</svg>
