<svg xmlns="http://www.w3.org/2000/svg" xmlns:xlink="http://www.w3.org/1999/xlink" width="12.151" height="17.015" viewBox="0 0 12.151 17.015">
  <defs>
    <clipPath id="clip-path">
      <rect id="Rectangle_6088" data-name="Rectangle 6088" width="12.151" height="17.015" fill="#bfbfbf"/>
    </clipPath>
  </defs>
  <g id="Group_13336" data-name="Group 13336" clip-path="url(#clip-path)">
    <path id="Path_14786" data-name="Path 14786" d="M1.178,2.8H3.1c.014.017.034.029.035.042.028.534.1.442.514.443q2.472.006,4.945,0c.475,0,.492.106.557-.476H11.1V15.829H1.178ZM4,4.97c0-.022,0-.044,0-.066-.207-.018-.414-.047-.621-.053-.434-.012-.892.09-1.215-.34-.032-.042-.186.009-.284.017.014.1-.006.242.049.28a.615.615,0,0,1,.233.615c-.01.217-.01.435,0,.653.011.249.009.479-.245.629a.231.231,0,0,0-.06.214.246.246,0,0,0,.188.124c.512.012,1.025.013,1.538.014.35,0,.369-.017.417-.358.045.032.083.083.124.085a2.425,2.425,0,0,0,.309-.018.961.961,0,0,0-.062-.284,1.075,1.075,0,0,0-.218-.2.634.634,0,0,1,.018-.925c.122-.1.243-.2.367-.3s.234-.2.119-.354-.25-.062-.366.037c-.095.082-.193.158-.29.237M3.975,8.545c.039-.321-.107-.394-.355-.386-.392.012-.785.007-1.177,0-.2,0-.289.078-.287.284.006.543.008,1.085,0,1.628,0,.216.087.3.3.3.367-.006.734,0,1.1,0,.406,0,.454-.021.416-.423a1.228,1.228,0,0,1,.608-1.383c.014-.008.034-.02.036-.033.018-.1.031-.194.046-.29-.1,0-.224-.04-.307,0a2.278,2.278,0,0,0-.379.3m-1.818,4.04c0,.276,0,.551,0,.826,0,.192.083.276.27.275.425,0,.85,0,1.276,0,.182,0,.278-.077.277-.27,0-.559,0-1.119,0-1.677a.227.227,0,0,0-.259-.261c-.434,0-.867,0-1.3,0-.192,0-.266.1-.262.283.007.275,0,.55,0,.825M7.742,6.326c-.7,0-1.4,0-2.105,0-.143,0-.29.011-.3.187-.007.192.147.215.3.215H9.8c.15,0,.306-.009.306-.207s-.164-.194-.309-.194H7.742m0,3.315c-.71,0-1.419,0-2.13,0-.2,0-.342.13-.26.251a.394.394,0,0,0,.285.142c1.386.009,2.772.007,4.159.007.149,0,.306-.008.308-.2s-.161-.2-.307-.2H7.744m-.016,3.315c-.7,0-1.4,0-2.105,0-.147,0-.285.024-.282.2s.145.2.289.2H9.814c.142,0,.286-.017.292-.2.007-.2-.15-.206-.3-.206H7.728M7.089,5.582c.484,0,.968,0,1.452,0,.155,0,.305-.019.3-.213-.007-.174-.151-.191-.3-.191q-1.452,0-2.9,0c-.155,0-.3.022-.3.213.007.176.153.191.3.19.484,0,.968,0,1.452,0m0,3.315c.485,0,.969,0,1.452,0,.154,0,.305-.016.3-.21,0-.174-.147-.194-.292-.194q-1.453,0-2.9,0c-.154,0-.3.019-.3.211,0,.176.149.194.293.193.484,0,.968,0,1.452,0m-.021,3.315c.492,0,.985,0,1.477,0,.155,0,.3-.02.3-.213-.008-.174-.152-.191-.3-.19q-1.453,0-2.9,0c-.155,0-.3.023-.3.214.007.176.154.189.3.189.475,0,.952,0,1.427,0" transform="translate(-0.06 -0.144)" fill="#bfbfbf"/>
    <path id="Path_14787" data-name="Path 14787" d="M9.075,2.332V1.749c.075-.007.147-.018.218-.018.586,0,1.172,0,1.757,0a1.012,1.012,0,0,1,1.1,1.114q0,6.577,0,13.155a1.01,1.01,0,0,1-1.109,1.1q-4.969,0-9.94,0A1.009,1.009,0,0,1,0,15.991Q0,9.413,0,2.836A1.012,1.012,0,0,1,1.108,1.73c.578,0,1.155,0,1.732,0,.073,0,.146.009.233.015v.587H2.091c-.352,0-.7,0-1.054,0C.75,2.335.7,2.383.7,2.672q0,2.536,0,5.071,0,4.03,0,8.058c0,.36.029.392.381.392h9.989c.34,0,.375-.036.375-.374V2.715c0-.35-.032-.381-.391-.382H9.075" transform="translate(0 -0.089)" fill="#bfbfbf"/>
    <rect id="Rectangle_6085" data-name="Rectangle 6085" width="5.146" height="1.82" transform="translate(3.501 0.906)" fill="#bfbfbf"/>
    <rect id="Rectangle_6086" data-name="Rectangle 6086" width="0.622" height="0.47" transform="translate(5.765 0)" fill="#bfbfbf"/>
    <path id="Path_14788" data-name="Path 14788" d="M2.689,6.818l.679-.562c.307.2.307.2.262.562Z" transform="translate(-0.138 -0.321)" fill="#bfbfbf"/>
    <path id="Path_14789" data-name="Path 14789" d="M2.651,5.553l.425.374-.425.361Z" transform="translate(-0.136 -0.285)" fill="#bfbfbf"/>
    <path id="Path_14790" data-name="Path 14790" d="M3.675,5.407a.34.34,0,0,1-.041.079c-.063.055-.125.107-.21.178-.086-.075-.169-.149-.292-.257Z" transform="translate(-0.161 -0.278)" fill="#bfbfbf"/>
    <path id="Path_14791" data-name="Path 14791" d="M3.642,9.772v.491H2.653V8.886h.971c.113.307-.095.434-.31.587a1.441,1.441,0,0,0-.228-.323c-.071-.059-.2-.053-.3-.077-.01.1-.057.212-.023.289a2.734,2.734,0,0,0,.27.421c.162.239.228.25.459.078.043-.031.091-.056.147-.09" transform="translate(-0.136 -0.456)" fill="#bfbfbf"/>
    <rect id="Rectangle_6087" data-name="Rectangle 6087" width="0.986" height="1.38" transform="translate(2.512 11.744)" fill="#bfbfbf"/>
  </g>
</svg>
