<svg xmlns="http://www.w3.org/2000/svg" xmlns:xlink="http://www.w3.org/1999/xlink" width="14.993" height="10.675" viewBox="0 0 14.993 10.675">
  <defs>
    <clipPath id="clip-path">
      <rect id="Rectangle_6051" data-name="Rectangle 6051" width="14.993" height="10.675" fill="#bfbfbf"/>
    </clipPath>
  </defs>
  <g id="Group_13334" data-name="Group 13334" transform="translate(0 0)">
    <g id="Group_13306" data-name="Group 13306" transform="translate(0 0)" clip-path="url(#clip-path)">
      <path id="Path_14753" data-name="Path 14753" d="M5.974,7.769l.734.7a1.6,1.6,0,0,0,2.307,0L9.61,7.9l4.662,4.873a3.94,3.94,0,0,1-.493.066q-5.925,0-11.849,0a3.689,3.689,0,0,1-.641-.115l0-.057,4.69-4.9" transform="translate(-0.359 -2.17)" fill="#bfbfbf"/>
      <path id="Path_14754" data-name="Path 14754" d="M14.172,0c-.052.058-.079.093-.11.123q-2.81,2.7-5.621,5.408a.542.542,0,0,1-.827,0L2.019.142C1.98.105,1.944.065,1.883,0Z" transform="translate(-0.526 0)" fill="#bfbfbf"/>
      <path id="Path_14755" data-name="Path 14755" d="M18.624,10.143,13.906,5.211,18.5.785a1.529,1.529,0,0,1,.369.987c.006.54,0,1.08,0,1.62q0,2.922,0,5.846a1.63,1.63,0,0,1-.251.9" transform="translate(-3.883 -0.219)" fill="#bfbfbf"/>
      <path id="Path_14756" data-name="Path 14756" d="M.377.769l4.468,4.3L.142,9.986C.094,9.8.046,9.64.017,9.481A1.712,1.712,0,0,1,0,9.164Q0,5.54,0,1.916A1.731,1.731,0,0,1,.258.93C.29.881.329.834.377.769" transform="translate(0 -0.215)" fill="#bfbfbf"/>
    </g>
  </g>
</svg>
