<svg id="Group_2895" data-name="Group 2895" xmlns="http://www.w3.org/2000/svg" width="15.56" height="18.217" viewBox="0 0 15.56 18.217">
  <path id="Path_5950" data-name="Path 5950" d="M3566.483-101.359h4.47a.256.256,0,0,0,.054.028,1.815,1.815,0,0,1,1.518,1.906c0,.233,0,.465,0,.716h.243q1.583,0,3.166,0a.505.505,0,0,1,.563.5.509.509,0,0,1-.569.494h-.276c-.036.44-.071.858-.1,1.276q-.154,1.918-.307,3.835-.177,2.2-.355,4.392c-.091,1.12-.163,2.243-.278,3.36a1.808,1.808,0,0,1-1.922,1.709h-7.944a2.132,2.132,0,0,1-.33-.017,1.864,1.864,0,0,1-1.607-1.866c-.111-1.458-.229-2.915-.345-4.372q-.287-3.567-.575-7.134c-.032-.39-.067-.78-.1-1.185-.358.026-.689.017-.844-.37v-.248a.611.611,0,0,1,.641-.377c1.032.011,2.064,0,3.1,0h.237c0-.3-.008-.586,0-.867a1.678,1.678,0,0,1,.717-1.4A5.03,5.03,0,0,1,3566.483-101.359Zm8.192,3.657h-11.916c.042.5.082.99.122,1.478q.174,2.113.347,4.226.178,2.154.358,4.308c.079.941.151,1.883.242,2.823a.807.807,0,0,0,.815.73c.1,0,.193,0,.29,0h7.778a.831.831,0,0,0,.907-.793c.012-.089.017-.179.024-.268q.091-1.113.183-2.226.177-2.144.356-4.288.156-1.886.313-3.772C3574.554-96.219,3574.614-96.953,3574.675-97.7Zm-3.145-1.017c0-.3.008-.576,0-.852a.809.809,0,0,0-.8-.791q-2.007-.011-4.014,0a.764.764,0,0,0-.779.641,7.376,7.376,0,0,0-.009,1Z" transform="translate(-3560.937 101.359)" fill="#fff"/>
  <path id="Path_5951" data-name="Path 5951" d="M3584.31-65.561q0,1.634,0,3.267a.507.507,0,0,1-.263.481.461.461,0,0,1-.509-.026.5.5,0,0,1-.222-.441c0-.345,0-.689,0-1.034v-5.377c0-.062,0-.124,0-.186a.5.5,0,0,1,.489-.489.491.491,0,0,1,.5.5c.008.413,0,.827,0,1.241Q3584.31-66.6,3584.31-65.561Z" transform="translate(-3578.682 75.993)" fill="#fff"/>
  <path id="Path_5952" data-name="Path 5952" d="M3596.1-65.562c0-1.082,0-2.165,0-3.247a.512.512,0,0,1,.3-.518.491.491,0,0,1,.688.4,1.821,1.821,0,0,1,0,.207q0,3.154,0,6.308c0,.055,0,.11,0,.165a.5.5,0,0,1-.489.489.492.492,0,0,1-.5-.5c-.008-.469,0-.938,0-1.406Z" transform="translate(-3588.818 75.996)" fill="#fff"/>
  <path id="Path_5953" data-name="Path 5953" d="M3608.891-65.562c0-1.082,0-2.165,0-3.247a.512.512,0,0,1,.3-.518.491.491,0,0,1,.688.4,1.766,1.766,0,0,1,0,.207q0,3.154,0,6.307c0,.055,0,.111,0,.165a.5.5,0,0,1-.489.489.493.493,0,0,1-.5-.5c-.008-.469,0-.938,0-1.406Z" transform="translate(-3598.959 75.995)" fill="#fff"/>
</svg>
