<svg xmlns="http://www.w3.org/2000/svg" xmlns:xlink="http://www.w3.org/1999/xlink" width="20.801" height="14.811" viewBox="0 0 20.801 14.811">
  <defs>
    <clipPath id="clip-path">
      <rect id="Rectangle_6051" data-name="Rectangle 6051" width="20.801" height="14.811" transform="translate(0 0)" fill="#bfbfbf"/>
    </clipPath>
  </defs>
  <g id="Group_13307" data-name="Group 13307" transform="translate(0 0)">
    <g id="Group_13306" data-name="Group 13306" clip-path="url(#clip-path)">
      <path id="Path_14753" data-name="Path 14753" d="M7.791,7.769l1.019.974a2.225,2.225,0,0,0,3.2,0l.825-.787L19.3,14.716a5.467,5.467,0,0,1-.684.092q-8.22.006-16.44,0a5.118,5.118,0,0,1-.89-.159l-.006-.079,6.507-6.8" fill="#bfbfbf"/>
      <path id="Path_14754" data-name="Path 14754" d="M18.933,0c-.072.081-.109.129-.152.17q-3.9,3.752-7.8,7.5a.751.751,0,0,1-1.147,0L2.071.2C2.018.146,1.968.09,1.883,0Z" fill="#bfbfbf"/>
      <path id="Path_14755" data-name="Path 14755" d="M20.452,13.768c-2.183-2.282-4.354-4.552-6.546-6.842C16.033,4.877,18.15,2.839,20.284.785a2.122,2.122,0,0,1,.512,1.37c.009.749,0,1.5,0,2.248q0,4.055,0,8.111a2.261,2.261,0,0,1-.348,1.254" fill="#bfbfbf"/>
      <path id="Path_14756" data-name="Path 14756" d="M.523.769l6.2,5.97L.2,13.557c-.067-.264-.133-.48-.173-.7A2.376,2.376,0,0,1,0,12.417Q0,7.389,0,2.36A2.4,2.4,0,0,1,.358.993C.4.924.456.859.523.769" fill="#bfbfbf"/>
    </g>
  </g>
</svg>
