<svg xmlns="http://www.w3.org/2000/svg" xmlns:xlink="http://www.w3.org/1999/xlink" width="21.536" height="15.16" viewBox="0 0 21.536 15.16">
  <defs>
    <clipPath id="clip-path">
      <rect id="Rectangle_5981" data-name="Rectangle 5981" width="21.536" height="15.16" fill="none"/>
    </clipPath>
  </defs>
  <g id="Group_12475" data-name="Group 12475" clip-path="url(#clip-path)">
    <path id="Path_14623" data-name="Path 14623" d="M6.59,1.982A6.592,6.592,0,1,1,1.931,3.912,6.568,6.568,0,0,1,6.59,1.982m3.482-1.1a3.545,3.545,0,0,0-2.062.623q.338.064.676.161a7.2,7.2,0,0,1,3.938,10.967,4.818,4.818,0,0,0,.6-.149A7.062,7.062,0,0,0,16,10.518c3.237-3.455,5.537-1.435,5.537-1.435A2.091,2.091,0,0,0,20,6.928c-1.335-.336-3.718,1.077-2.71-.355.976-1.558,1.543-1.793,3.009-1.358A1.712,1.712,0,0,0,18.743,3.6c-1.688-.347-2.73.885-3.771,1.852-.444.413-.959.637-1.494-.108-.173-.281.042-.618,1.293-.623C16.634,4.425,16.727,0,16.727,0c-1.973,3.739-2.917.833-6.656.883M6.686,4.967,5.631,4.6l-1.054-.37A.177.177,0,0,1,4.467,4a.142.142,0,0,1,.018-.038h0l.4-.618L5,3.162A5.661,5.661,0,0,0,2.013,5.281l.175-.058.7-.229a.179.179,0,0,1,.225.114.233.233,0,0,1,.008.04l.094,1.114.1,1.114a.181.181,0,0,1-.033.118l-.638.915L2,9.327a.18.18,0,0,1-.249.045.22.22,0,0,1-.04-.039L1.23,8.8.953,8.489c0,.028,0,.055,0,.082a5.61,5.61,0,0,0,1.215,3.5l.013-.422.024-.734a.178.178,0,0,1,.184-.171.166.166,0,0,1,.04.006l1.079.292,1.079.292a.174.174,0,0,1,.1.074l.64.91.644.914a.18.18,0,0,1-.043.249.159.159,0,0,1-.043.022l-.674.27-.391.157A5.662,5.662,0,0,0,8.6,13.84l-.178-.065-.69-.249a.177.177,0,0,1-.108-.227.174.174,0,0,1,.019-.037l.611-.936.611-.936a.177.177,0,0,1,.1-.073h0l1.068-.329,1.068-.33a.178.178,0,0,1,.222.117.163.163,0,0,1,.007.041l.05.732v.007a5.613,5.613,0,0,0,.853-2.926l-.072.094-.45.58a.178.178,0,0,1-.25.032.19.19,0,0,1-.03-.029l-.7-.87-.7-.87a.178.178,0,0,1-.039-.123L10,6.334l.016-1.118a.177.177,0,0,1,.18-.176.155.155,0,0,1,.041.006h0l.711.179.22.055a5.654,5.654,0,0,0-2.6-1.988l.012.019.407.61a.179.179,0,0,1-.048.247.24.24,0,0,1-.042.021l-1.043.388-1.048.39a.179.179,0,0,1-.121,0M6.791,6.2a.18.18,0,0,0-.213,0l-1.051.764-1.051.763a.179.179,0,0,0-.065.2l.4,1.237.4,1.224a.179.179,0,0,0,.173.135h2.6a.179.179,0,0,0,.17-.124l.4-1.235.4-1.232a.18.18,0,0,0-.063-.2L7.839,6.964Z" transform="translate(0 0)" fill-rule="evenodd"/>
  </g>
</svg>
