<svg xmlns="http://www.w3.org/2000/svg" xmlns:xlink="http://www.w3.org/1999/xlink" width="27.709" height="27.71" viewBox="0 0 27.709 27.71">
  <defs>
    <clipPath id="clip-path">
      <rect id="Rectangle_2873" data-name="Rectangle 2873" width="27.709" height="27.71" fill="#707070"/>
    </clipPath>
  </defs>
  <g id="Group_7675" data-name="Group 7675" clip-path="url(#clip-path)">
    <path id="Path_12243" data-name="Path 12243" d="M13.855,0a13.856,13.856,0,1,1-9.8,4.059A13.811,13.811,0,0,1,13.855,0m.2,6.277L11.84,5.5,9.622,4.722a.374.374,0,0,1-.192-.555l.833-1.3.246-.384A11.877,11.877,0,0,0,4.232,6.937L4.6,6.816l1.466-.481a.374.374,0,0,1,.472.241.319.319,0,0,1,.017.085L6.755,9l.2,2.343a.372.372,0,0,1-.069.249l-1.34,1.925L4.2,15.446a.375.375,0,0,1-.523.094.358.358,0,0,1-.085-.082L2.586,14.332,2,13.682c0,.058,0,.117,0,.173A11.8,11.8,0,0,0,4.558,21.2l.028-.887.05-1.543a.375.375,0,0,1,.385-.362.365.365,0,0,1,.085.013h0l2.268.614,2.268.615a.373.373,0,0,1,.216.155L11.2,21.723l1.352,1.923a.374.374,0,0,1-.091.523.42.42,0,0,1-.091.047l-1.417.566-.823.33a11.91,11.91,0,0,0,7.939-.177L17.7,24.8l-1.452-.524a.374.374,0,0,1-.226-.478.4.4,0,0,1,.038-.079l1.284-1.967,1.284-1.968a.385.385,0,0,1,.2-.155l2.246-.693,2.246-.694a.373.373,0,0,1,.467.248.388.388,0,0,1,.016.086l.1,1.54,0,.013a11.8,11.8,0,0,0,1.794-6.151l-.152.2-.946,1.22a.375.375,0,0,1-.525.068.342.342,0,0,1-.063-.062l-1.475-1.829-1.476-1.829a.373.373,0,0,1-.082-.259l.033-2.331L21.053,6.8a.373.373,0,0,1,.378-.37.434.434,0,0,1,.086.01h0l1.5.378.462.117a11.861,11.861,0,0,0-5.461-4.179l.026.038L18.9,4.078a.375.375,0,0,1-.1.519.416.416,0,0,1-.088.044l-2.192.815-2.2.818a.377.377,0,0,1-.254,0m.222,2.6a.375.375,0,0,0-.446,0l-2.21,1.606L9.412,12.08a.374.374,0,0,0-.136.42l.845,2.6.837,2.575a.375.375,0,0,0,.363.283h5.463a.375.375,0,0,0,.358-.259l.845-2.6.841-2.588a.378.378,0,0,0-.134-.431l-2.211-1.605Z" transform="translate(0 -0.001)" fill="#707070" fill-rule="evenodd"/>
  </g>
</svg>
