<svg xmlns="http://www.w3.org/2000/svg" xmlns:xlink="http://www.w3.org/1999/xlink" width="37" height="37" viewBox="0 0 37 37">
  <defs>
    <clipPath id="clip-path">
      <rect id="Rectangle_3159" data-name="Rectangle 3159" width="37" height="37" transform="translate(0 0)" fill="none"/>
    </clipPath>
    <clipPath id="clip-path-2">
      <rect id="Rectangle_3163" data-name="Rectangle 3163" width="19.314" height="19.312" fill="none"/>
    </clipPath>
  </defs>
  <g id="Group_7542" data-name="Group 7542" clip-path="url(#clip-path)">
    <path id="Path_14446" data-name="Path 14446" d="M18.5,0A18.5,18.5,0,1,0,37,18.5,18.5,18.5,0,0,0,18.5,0" transform="translate(0 0.001)" fill="#ebebeb"/>
    <g id="Group_7551" data-name="Group 7551" transform="translate(8.843 8.844)">
      <g id="Group_7550" data-name="Group 7550" clip-path="url(#clip-path-2)">
        <path id="Path_14450" data-name="Path 14450" d="M90.106,76.236a5.939,5.939,0,0,0,1.9-1.82,6.915,6.915,0,0,0,.5-.947c.069-.153.039-.188-.126-.187-1.57,0-3.141,0-4.712,0-.251,0-.251,0-.252-.254,0-1.124,0-2.249,0-3.373,0-.142.03-.194.185-.193q4.457.007,8.914,0c.133,0,.183.034.2.172.041.286.084.57.1.858,0,.036-.005.077.035.1v1.433a2.325,2.325,0,0,0-.084.549A9.649,9.649,0,0,1,94.7,77.355a8.267,8.267,0,0,1-1.459,1.438l-3.138-2.557" transform="translate(-77.546 -61.619)" fill="#5d8ffb"/>
        <path id="Path_14451" data-name="Path 14451" d="M21.654,106.339l3.138,2.557a.445.445,0,0,1-.05.055,9.635,9.635,0,0,1-4.522,1.972,3.377,3.377,0,0,0-.713.111H17.96a2.941,2.941,0,0,0-.674-.11,9.6,9.6,0,0,1-7.021-4.94.2.2,0,0,1-.012-.035l.539-.441,2.583-2.107a5.758,5.758,0,0,0,8.145,3.007c.044-.023.09-.045.134-.068" transform="translate(-9.094 -91.722)" fill="#51b541"/>
        <path id="Path_14452" data-name="Path 14452" d="M9.629,5.23a8.218,8.218,0,0,1,1.3-1.928,9.665,9.665,0,0,1,13.31-1.179c.1.077.112.113,0,.2Q22.8,3.5,21.358,4.685a.178.178,0,0,1-.243.03A5.738,5.738,0,0,0,12.8,7.708a.491.491,0,0,1-.036.066c-.282-.228-.566-.455-.847-.684L9.629,5.23" transform="translate(-8.541 0)" fill="#e12c2a"/>
        <path id="Path_14453" data-name="Path 14453" d="M1.087,46.3l2.288,1.86c.282.229.565.456.847.684a6.66,6.66,0,0,0-.3,1.713,6,6,0,0,0,.36,2.192L1.7,54.856l-.54.441A9.117,9.117,0,0,1,.083,51.99a9.567,9.567,0,0,1,.861-5.427c.043-.09.1-.175.143-.262" transform="translate(0 -41.071)" fill="#f2b501"/>
      </g>
    </g>
  </g>
</svg>
