<svg xmlns="http://www.w3.org/2000/svg" xmlns:xlink="http://www.w3.org/1999/xlink" width="35.821" height="10.997" viewBox="0 0 35.821 10.997">
  <defs>
    <clipPath id="clip-path">
      <rect id="Rectangle_5920" data-name="Rectangle 5920" width="35.821" height="10.997" transform="translate(0 0)" fill="none"/>
    </clipPath>
  </defs>
  <g id="Group_12307" data-name="Group 12307" transform="translate(0 0)">
    <g id="Group_12306" data-name="Group 12306" transform="translate(0 0)" clip-path="url(#clip-path)">
      <path id="Path_14542" data-name="Path 14542" d="M15.569.067A1.322,1.322,0,0,1,16.035,0c.137.72.268,1.44.4,2.161.012.051.021.133-.055.131a2.542,2.542,0,0,0-1.646,1.08,1.167,1.167,0,0,1-.141.2.777.777,0,0,1-.209-.1q-.782-.457-1.566-.911a1.667,1.667,0,0,1-.233-.146.158.158,0,0,1,.028-.1A4.892,4.892,0,0,1,15.569.067" transform="translate(-11.052 0)" fill="#fff"/>
      <path id="Path_14543" data-name="Path 14543" d="M44.835,4.316a4.876,4.876,0,0,1,3.954,1.145.064.064,0,0,1,0,.1c-.467.545-.94,1.085-1.408,1.629-.035.047-.1.1-.148.036a2.529,2.529,0,0,0-1.648-.618c-.159-.005-.315.029-.473.027C45,5.9,44.9,5.167,44.787,4.432,44.777,4.389,44.775,4.317,44.835,4.316Z" transform="translate(-39.315 -3.737)" fill="#fff"/>
      <path id="Path_14544" data-name="Path 14544" d="M120.7,16.753a.75.75,0,1,1-.116,1.425.745.745,0,0,1-.447-.786A.755.755,0,0,1,120.7,16.753Zm-12.179.763q.665,0,1.33,0c0,1.313,0,2.626,0,3.939.535.006,1.071,0,1.607,0,0,.387,0,.774,0,1.161-.977,0-1.955,0-2.932,0C108.523,20.917,108.525,19.216,108.522,17.516Zm8.248,0c.443,0,.887,0,1.331,0-.005,1.312,0,2.625,0,3.938.535.005,1.07,0,1.605,0,0,.387,0,.773,0,1.16h-2.931q0-2.551,0-5.1m-4.612,1.668a1.92,1.92,0,0,1,1.182-.713,1.668,1.668,0,0,1,.974.112,2.308,2.308,0,0,1,.506.354c0-.137,0-.274,0-.411h1.22q.007,2.046,0,4.093c-.414,0-.827,0-1.241,0,0-.13,0-.261,0-.391a1.757,1.757,0,0,1-1.144.492,1.855,1.855,0,0,1-1.4-.51,2.172,2.172,0,0,1-.582-1.464,2.286,2.286,0,0,1,.481-1.559m1.578.421a.919.919,0,0,0-.612.355,1.108,1.108,0,0,0,.156,1.44.992.992,0,0,0,1.338-.13,1.06,1.06,0,0,0-.063-1.421A.981.981,0,0,0,113.735,19.6Zm8.937-.732a1.662,1.662,0,0,1,2.149-.07c.066.056.128.116.19.177,0-.152,0-.3,0-.455.394,0,.788,0,1.182,0q0,1.816,0,3.631a1.852,1.852,0,0,1-.5,1.3,2.177,2.177,0,0,1-1.529.6,2.319,2.319,0,0,1-1.558-.5,1.513,1.513,0,0,1-.512-.931c.461,0,.921,0,1.381,0a.7.7,0,0,0,.362.3,1.284,1.284,0,0,0,.688-.033.631.631,0,0,0,.4-.379,1.625,1.625,0,0,0,.027-.5,1.851,1.851,0,0,1-1.227.468,1.658,1.658,0,0,1-1.147-.5,2.129,2.129,0,0,1-.564-1.523,2.177,2.177,0,0,1,.657-1.59m1.16.666a.769.769,0,0,0-.448.333,1.192,1.192,0,0,0-.138.885.861.861,0,0,0,.453.6.938.938,0,0,0,1.088-.24,1.017,1.017,0,0,0,.219-.786.909.909,0,0,0-.406-.7A1.037,1.037,0,0,0,123.833,19.539Zm3.852-.794a1.855,1.855,0,0,1,1.4-.258,1.8,1.8,0,0,1,.785.455q0-.208,0-.417c.407,0,.815,0,1.223,0v4.089h-1.247q0-.195,0-.39a1.866,1.866,0,0,1-.466.32,1.913,1.913,0,0,1-1.48.042,1.745,1.745,0,0,1-.976-.942,2.642,2.642,0,0,1-.179-1.411,2.178,2.178,0,0,1,.936-1.492m1.078.863a.912.912,0,0,0-.7.547,1.118,1.118,0,0,0,.275,1.25.993.993,0,0,0,1.336-.142,1.06,1.06,0,0,0-.08-1.427A.984.984,0,0,0,128.763,19.608Zm-8.512-1.083h1.236q0,2.046,0,4.091h-1.235q0-2.046,0-4.092" transform="translate(-95.275 -14.689)" fill="#fff"/>
      <path id="Path_14545" data-name="Path 14545" d="M1.5,19.9c.043,0,.08.027.118.043.624.338,1.252.67,1.875,1.008.06.018.061.083.028.126a2.517,2.517,0,0,0-.167,1.981.93.93,0,0,1,.055.186c-.015.044-.068.049-.1.068-.659.252-1.317.507-1.976.76-.04.012-.1.041-.118-.019a4.877,4.877,0,0,1,.23-4.083A.182.182,0,0,1,1.5,19.9" transform="translate(-0.762 -17.47)" fill="#fff"/>
      <path id="Path_14546" data-name="Path 14546" d="M65.054,20.928c.034-.039.083-.02.111.015a4.876,4.876,0,0,1,1.516,3.813c.005.067-.078.052-.12.054-.721-.037-1.444-.069-2.165-.107-.073,0-.065-.086-.064-.135a2.5,2.5,0,0,0-.225-1.129,2.786,2.786,0,0,0-.619-.849c.042-.052.083-.1.129-.152.481-.5.955-1.01,1.437-1.511" transform="translate(-55.738 -18.355)" fill="#fff"/>
      <path id="Path_14547" data-name="Path 14547" d="M30.491,30.531a1.84,1.84,0,1,1-1.439,1.361,1.85,1.85,0,0,1,1.439-1.361m-1.032.833c.063-.031.126-.063.189-.095a1.217,1.217,0,0,0-.108.577,4.928,4.928,0,0,1,.476.228c-.173-.028-.343-.069-.515-.1a1.352,1.352,0,0,0-.26.532c-.034-.066-.068-.134-.1-.2a1.8,1.8,0,0,0,.348,1.059c-.016-.073-.03-.147-.044-.221a1.2,1.2,0,0,0,.523.281c.119-.129.228-.266.359-.383-.073.159-.168.306-.252.459a1.2,1.2,0,0,0,.429.413l-.218.031a2.094,2.094,0,0,0,.564.087,2.219,2.219,0,0,0,.536-.086l-.217-.031A1.228,1.228,0,0,0,31.6,33.5c-.083-.153-.179-.3-.253-.459.13.117.24.255.359.383a1.218,1.218,0,0,0,.523-.281q-.021.109-.043.218a1.817,1.817,0,0,0,.348-1.052c-.033.065-.064.131-.1.2a1.428,1.428,0,0,0-.263-.53c-.173.034-.343.075-.517.1a5.286,5.286,0,0,1,.479-.228,1.228,1.228,0,0,0-.109-.578c.062.032.125.063.188.094a1.791,1.791,0,0,0-.888-.647c.055.053.108.109.161.165a1.173,1.173,0,0,0-.583.077c-.025.177-.034.355-.069.531-.027-.176-.041-.353-.063-.529a1.155,1.155,0,0,0-.585-.078,1.362,1.362,0,0,1,.184-.174A1.814,1.814,0,0,0,29.459,31.365Z" transform="translate(-25.458 -26.776)" fill="#fff"/>
      <path id="Path_14548" data-name="Path 14548" d="M37.974,39.658c.251-.176.5-.362.747-.539.247.185.5.359.746.547-.1.292-.192.583-.284.875-.309,0-.619,0-.929,0-.09-.3-.2-.587-.281-.885" transform="translate(-33.339 -34.344)" fill="#fff"/>
      <path id="Path_14549" data-name="Path 14549" d="M1.916,51.865a1.1,1.1,0,0,1,.219-.08,1.168,1.168,0,0,1,.129.233,2.556,2.556,0,0,0,1.565,1.268c-.014.066-.028.132-.047.2-.182.574-.359,1.15-.539,1.725a2.2,2.2,0,0,1-.1.286c-.032.045-.085.013-.126.005A4.878,4.878,0,0,1,0,52.732V52.7C.632,52.41,1.279,52.149,1.916,51.865Z" transform="translate(0 -45.464)" fill="#fff"/>
      <path id="Path_14550" data-name="Path 14550" d="M56.953,54.158a.309.309,0,0,1,.15-.01c.724.061,1.448.109,2.171.173,0,.038.006.076.007.115a4.875,4.875,0,0,1-1.992,3.548c-.051.049-.1-.011-.13-.052-.423-.582-.853-1.159-1.274-1.742-.052-.051,0-.1.047-.133a2.517,2.517,0,0,0,.974-1.582A2.669,2.669,0,0,1,56.953,54.158Z" transform="translate(-49.045 -47.535)" fill="#fff"/>
      <path id="Path_14551" data-name="Path 14551" d="M29.85,67.111c.041-.028.069.027.091.052.4.587.788,1.176,1.183,1.762a.721.721,0,0,1,.05.087c0,.047-.047.068-.078.093a4.892,4.892,0,0,1-2.04.768,1.194,1.194,0,0,1-.373.019,7.1,7.1,0,0,0-.753.017,6.557,6.557,0,0,1-.871-.182c-.051-.014-.025-.079-.019-.116.192-.688.38-1.379.572-2.067a.084.084,0,0,1,.13-.068,2.515,2.515,0,0,0,1.414-.029A2.988,2.988,0,0,0,29.85,67.111Z" transform="translate(-23.729 -58.912)" fill="#fff"/>
    </g>
  </g>
</svg>
