<svg xmlns="http://www.w3.org/2000/svg" xmlns:xlink="http://www.w3.org/1999/xlink" width="15.571" height="15.571" viewBox="0 0 15.571 15.571">
  <defs>
    <clipPath id="clip-path">
      <rect id="Rectangle_6081" data-name="Rectangle 6081" width="15.571" height="15.571" fill="#bfbfbf"/>
    </clipPath>
  </defs>
  <g id="Group_13327" data-name="Group 13327" clip-path="url(#clip-path)">
    <path id="Path_14777" data-name="Path 14777" d="M1.218,0H6.236a.187.187,0,0,0,.04.02A1.348,1.348,0,0,1,7.427,1.239c.094.672.171,1.346.255,2.019q.206,1.65.409,3.3.191,1.537.381,3.074c.112.9.227,1.808.336,2.713.026.217-.174.486-.353.486-2.346,0-4.692,0-7.038-.005a1.536,1.536,0,0,1-.629-.138A1.318,1.318,0,0,1,0,11.408c0-.973,0-1.946,0-2.919Q0,4.97,0,1.452A1.329,1.329,0,0,1,.57.273,3.536,3.536,0,0,1,1.218,0M4.763,6.909c.006.024.012.042.016.062.091.456.18.913.275,1.369a.457.457,0,1,0,.894-.181Q5.5,5.92,5.051,3.68a.473.473,0,0,0-.521-.425c-.268,0-.537,0-.806,0a.479.479,0,0,0-.535.445q-.439,2.18-.873,4.36a.888.888,0,0,0-.021.3.446.446,0,0,0,.44.368.456.456,0,0,0,.456-.389c.1-.474.19-.95.285-1.428Z" transform="translate(0 0)" fill="#bfbfbf"/>
    <path id="Path_14778" data-name="Path 14778" d="M16.593,4.4V14.736a.258.258,0,0,0-.022.056,1.36,1.36,0,0,1-1.4,1.159q-3.315,0-6.629,0c-.036,0-.072-.008-.126-.014.652-.746,1.286-1.476,1.928-2.2a1.447,1.447,0,0,0,.389-1.144c-.069-.649-.158-1.3-.239-1.945q-.2-1.642-.409-3.286t-.412-3.3c-.037-.3-.073-.6-.109-.9a.462.462,0,0,1,.062-.011c1.865,0,3.731,0,5.595,0a1.329,1.329,0,0,1,1.066.527,1.716,1.716,0,0,1,.308.717m-3.68,2.889c-.462,0-.9,0-1.342,0a.458.458,0,0,0-.482.444.452.452,0,0,0,.46.464.142.142,0,0,1,.157.119A5.919,5.919,0,0,0,12.4,9.741c.1.156.219.3.332.455-.057.049-.105.094-.156.135-.279.228-.558.454-.835.684a.456.456,0,1,0,.567.713c.065-.048.128-.1.191-.151l.872-.717.131.106c.322.256.639.515.964.765a.456.456,0,1,0,.556-.72c-.17-.135-.346-.264-.517-.4s-.334-.274-.506-.416A5.849,5.849,0,0,0,15.1,8.2l.088-.005a.458.458,0,1,0-.019-.912H13.825c0-.158,0-.3,0-.44a.455.455,0,1,0-.91,0c0,.141,0,.282,0,.442" transform="translate(-1.022 -0.382)" fill="#bfbfbf"/>
    <path id="Path_14779" data-name="Path 14779" d="M6.068,15.65H8.444c-.029.04-.047.071-.072.1-.449.495-.9.988-1.345,1.486a.139.139,0,0,1-.214.032,1.364,1.364,0,0,1-.655-.941c-.04-.218-.059-.44-.089-.675" transform="translate(-0.737 -1.899)" fill="#bfbfbf"/>
    <path id="Path_14780" data-name="Path 14780" d="M5.089,6.563H4.166c.121-.605.24-1.2.36-1.809h.2c.12.6.24,1.2.362,1.809" transform="translate(-0.506 -0.577)" fill="#bfbfbf"/>
    <path id="Path_14781" data-name="Path 14781" d="M13.952,10.213a4.625,4.625,0,0,1-.74-1.309H14.72a4.612,4.612,0,0,1-.768,1.309" transform="translate(-1.604 -1.08)" fill="#bfbfbf"/>
  </g>
</svg>
