<svg id="Group_12448" data-name="Group 12448" xmlns="http://www.w3.org/2000/svg" width="66.963" height="24.809" viewBox="0 0 66.963 24.809">
  <g id="Group_216" data-name="Group 216" transform="translate(0 8.512)">
    <path id="Path_337" data-name="Path 337" d="M808.614,225.354v3.784h-5.246v-2.394a1.886,1.886,0,0,0-1.887-1.886h-6.615v-.139a1.59,1.59,0,0,1,1.59-1.59h2.02a.508.508,0,0,0,.508-.508v-1.886a.508.508,0,0,0-.508-.508h-2.02a4.492,4.492,0,0,0-4.492,4.492v2.532a.508.508,0,0,0,.508.508h7.992v1.378H788.418v-3.756a.508.508,0,0,0-.508-.508h-1.886a.509.509,0,0,0-.509.508v3.756h-4.66v-3.756a.508.508,0,0,0-.508-.508h-1.886a.508.508,0,0,0-.508.508v3.756h-3.312v-2.394a1.886,1.886,0,0,0-1.886-1.886H766.14v-.139a1.59,1.59,0,0,1,1.59-1.59h2.02a.509.509,0,0,0,.508-.508v-1.886a.508.508,0,0,0-.508-.508h-2.02a4.492,4.492,0,0,0-4.492,4.491v2.532a.508.508,0,0,0,.509.508h7.992v1.378h-10.7v-8.354a.508.508,0,0,0-.508-.508h-1.886a.507.507,0,0,0-.508.508v9.378a1.886,1.886,0,0,0,1.886,1.886H809.63a1.886,1.886,0,0,0,1.886-1.886v-4.8a.508.508,0,0,0-.508-.508h-1.886a.508.508,0,0,0-.508.508" transform="translate(-744.656 -220.225)" fill="#5a5b5e"/>
    <path id="Path_338" data-name="Path 338" d="M746.556,231.04h-6.067v-1.32a.508.508,0,0,0-.508-.508h-1.887a.508.508,0,0,0-.508.508v2.337a1.887,1.887,0,0,0,1.887,1.887h8.1a1.887,1.887,0,0,0,1.887-1.887V227.8a.508.508,0,0,0-.508-.508h-1.886a.507.507,0,0,0-.508.508Z" transform="translate(-737.587 -222.654)" fill="#5a5b5e"/>
  </g>
  <path id="Path_339" data-name="Path 339" d="M838,222.088a1.583,1.583,0,1,1-1.582-1.582h0A1.582,1.582,0,0,1,838,222.088" transform="translate(-771.037 -211.81)" fill="#4a2661"/>
  <path id="Path_340" data-name="Path 340" d="M830.43,221.087a1,1,0,1,1-1,1,1,1,0,0,1,1-1m0-.581a1.583,1.583,0,1,0,1.583,1.582h0a1.583,1.583,0,0,0-1.583-1.582" transform="translate(-768.978 -211.81)" fill="#4a2661"/>
  <path id="Path_343" data-name="Path 343" d="M748.23,220.506a1.583,1.583,0,1,0,1.585,1.582,1.583,1.583,0,0,0-1.585-1.582h0" transform="translate(-740.704 -211.81)" fill="#4a2661"/>
  <path id="Path_344" data-name="Path 344" d="M744.172,220.951a.581.581,0,0,0-.821,0l-.409.408-.408-.408a.581.581,0,0,0-.821.821l.408.408-.408.409a.581.581,0,0,0,.821.821l.408-.409.409.409a.581.581,0,0,0,.821-.821l-.409-.409.409-.408a.581.581,0,0,0,0-.821" transform="translate(-738.952 -211.905)" fill="#4a2661"/>
  <path id="Path_343-2" data-name="Path 343" d="M801.732,220.546a1.583,1.583,0,1,0,1.585,1.583,1.582,1.582,0,0,0-1.585-1.583h0" transform="translate(-759.108 -211.824)" fill="#4a2661"/>
  <path id="Path_344-2" data-name="Path 344" d="M797.673,220.991a.581.581,0,0,0-.821,0l-.409.409-.408-.409a.581.581,0,0,0-.821.821l.408.409-.408.408a.581.581,0,0,0,.821.821l.408-.408.409.408a.581.581,0,0,0,.821-.821l-.409-.408.409-.409a.581.581,0,0,0,0-.821" transform="translate(-757.355 -211.918)" fill="#4a2661"/>
  <path id="Path_345" data-name="Path 345" d="M791.45,240.242a1.583,1.583,0,1,0,1.583,1.583h0a1.583,1.583,0,0,0-1.583-1.582" transform="translate(-755.57 -218.598)" fill="#4a2661"/>
  <path id="Path_346" data-name="Path 346" d="M787.381,240.685a.581.581,0,0,0-.821,0l-.409.408-.408-.408a.583.583,0,1,0-.827.821h0l.408.408-.408.409a.581.581,0,0,0,.821.821l.408-.409.409.409a.581.581,0,0,0,.821-.821l-.409-.409.409-.408a.581.581,0,0,0,0-.821" transform="translate(-753.809 -218.691)" fill="#4a2661"/>
  <path id="Path_347" data-name="Path 347" d="M754.872,215.581c-.423.269-.836.55-1.234.836l-.879-1.633-.909,3.029,3.022.9-.949-1.76c.409-.295.835-.585,1.27-.863a.3.3,0,1,0-.306-.526l-.02.013" transform="translate(-742.493 -209.842)" fill="#4a2661"/>
  <path id="Path_348" data-name="Path 348" d="M776.77,208.088c-1.069.163-2.135.369-3.169.6a.305.305,0,0,0,.136.6c1.019-.234,2.071-.434,3.125-.6a.305.305,0,0,0-.093-.6" transform="translate(-749.893 -207.537)" fill="#4a2661"/>
  <path id="Path_349" data-name="Path 349" d="M769.148,209.729c-1.048.291-2.082.623-3.073.988a.3.3,0,1,0,.211.571h0c.975-.358,1.994-.686,3.026-.972a.3.3,0,1,0-.163-.587h0" transform="translate(-747.317 -208.099)" fill="#4a2661"/>
  <path id="Path_350" data-name="Path 350" d="M784.553,207.323c-1.076.047-2.158.131-3.215.245a.3.3,0,0,0,.034.608h.034c1.044-.117,2.112-.2,3.175-.245a.305.305,0,0,0-.027-.609" transform="translate(-752.542 -207.274)" fill="#4a2661"/>
  <path id="Path_351" data-name="Path 351" d="M761.826,212.321c-1.009.433-1.987.908-2.907,1.414a.3.3,0,1,0,.294.534c.9-.5,1.864-.964,2.854-1.388a.3.3,0,0,0-.24-.56h0" transform="translate(-744.87 -208.986)" fill="#4a2661"/>
  <path id="Path_352" data-name="Path 352" d="M807.879,209.665c-1.014-.3-2.065-.572-3.125-.806a.3.3,0,0,0-.13.6h0c1.044.228,2.081.495,3.079.794a.3.3,0,0,0,.174-.584" transform="translate(-760.563 -207.801)" fill="#4a2661"/>
  <path id="Path_353" data-name="Path 353" d="M792.389,207.342c-1.061-.066-2.15-.1-3.223-.091a.305.305,0,1,0,0,.61c1.061,0,2.132.026,3.184.09h.019a.3.3,0,1,0,.02-.609" transform="translate(-755.224 -207.25)" fill="#4a2661"/>
  <path id="Path_354" data-name="Path 354" d="M815.316,212.212c-.957-.439-1.965-.846-3-1.21a.3.3,0,0,0-.2.571c1.013.359,2,.76,2.946,1.19a.3.3,0,0,0,.254-.554" transform="translate(-763.162 -208.537)" fill="#4a2661"/>
  <path id="Path_355" data-name="Path 355" d="M822.275,215.81a29.507,29.507,0,0,0-2.776-1.669.3.3,0,1,0-.286.538h0a28.967,28.967,0,0,1,2.715,1.634.3.3,0,1,0,.344-.5h0" transform="translate(-765.608 -209.608)" fill="#4a2661"/>
  <path id="Path_356" data-name="Path 356" d="M800.2,208.066c-1.047-.18-2.123-.327-3.2-.437a.3.3,0,0,0-.062.607h0c1.061.108,2.123.253,3.154.431a.3.3,0,0,0,.1-.6h0" transform="translate(-757.909 -207.38)" fill="#4a2661"/>
  <path id="Path_357" data-name="Path 357" d="M827.4,219.552c-.408-.381-.847-.757-1.3-1.12a.3.3,0,1,0-.38.476h0c.441.352.866.719,1.266,1.09a.3.3,0,1,0,.415-.446h0" transform="translate(-767.861 -211.074)" fill="#4a2661"/>
</svg>
