<svg xmlns="http://www.w3.org/2000/svg" width="103" height="38.16" viewBox="0 0 103 38.16">
  <g id="Group_13271" data-name="Group 13271" transform="translate(0 0)">
    <g id="Group_216" data-name="Group 216" transform="translate(0 13.093)">
      <path id="Path_337" data-name="Path 337" d="M835.778,228.115v5.82h-8.07v-3.682a2.9,2.9,0,0,0-2.9-2.9H814.631v-.214a2.446,2.446,0,0,1,2.446-2.446h3.107a.781.781,0,0,0,.782-.781v-2.9a.782.782,0,0,0-.782-.782h-3.107a6.91,6.91,0,0,0-6.909,6.909v3.894a.782.782,0,0,0,.782.781h12.294v2.119H804.713v-5.778a.781.781,0,0,0-.781-.782h-2.9a.782.782,0,0,0-.782.782v5.778H793.08v-5.778a.781.781,0,0,0-.781-.782h-2.9a.782.782,0,0,0-.782.782v5.778h-5.095v-3.682a2.9,2.9,0,0,0-2.9-2.9H770.446v-.214a2.446,2.446,0,0,1,2.446-2.445H776a.782.782,0,0,0,.782-.782v-2.9a.781.781,0,0,0-.782-.781h-3.107a6.909,6.909,0,0,0-6.909,6.908v3.894a.782.782,0,0,0,.782.781h12.293v2.119H762.6v-12.85a.781.781,0,0,0-.782-.781h-2.9a.78.78,0,0,0-.781.781V235.5a2.9,2.9,0,0,0,2.9,2.9h76.3a2.9,2.9,0,0,0,2.9-2.9V228.12a.781.781,0,0,0-.781-.781h-2.9a.782.782,0,0,0-.782.781" transform="translate(-737.4 -220.225)" fill="#5a5b5e"/>
      <path id="Path_338" data-name="Path 338" d="M751.383,233.059h-9.332v-2.03a.782.782,0,0,0-.781-.782h-2.9a.782.782,0,0,0-.781.782v3.594a2.9,2.9,0,0,0,2.9,2.9h12.456a2.9,2.9,0,0,0,2.9-2.9v-6.554a.781.781,0,0,0-.782-.781h-2.9a.78.78,0,0,0-.781.781Z" transform="translate(-737.587 -220.161)" fill="#5a5b5e"/>
    </g>
    <path id="Path_339" data-name="Path 339" d="M839.7,222.94a2.434,2.434,0,1,1-2.434-2.434h0a2.434,2.434,0,0,1,2.434,2.434" transform="translate(-736.704 -207.13)" fill="#4a2661"/>
    <path id="Path_340" data-name="Path 340" d="M831.282,221.4a1.541,1.541,0,1,1-1.542,1.543,1.541,1.541,0,0,1,1.542-1.543m0-.893a2.434,2.434,0,1,0,2.435,2.434h0a2.434,2.434,0,0,0-2.435-2.434" transform="translate(-736.758 -207.13)" fill="#4a2661"/>
    <path id="Path_343" data-name="Path 343" d="M749.081,220.506a2.434,2.434,0,1,0,2.438,2.434,2.435,2.435,0,0,0-2.438-2.434h0" transform="translate(-737.505 -207.13)" fill="#4a2661"/>
    <path id="Path_344" data-name="Path 344" d="M745.579,221.042a.894.894,0,0,0-1.262,0l-.629.628-.628-.628A.893.893,0,0,0,741.8,222.3l.628.628-.628.629a.893.893,0,0,0,1.262,1.262l.628-.629.629.629a.893.893,0,0,0,1.262-1.262l-.629-.629.629-.628a.893.893,0,0,0,0-1.262" transform="translate(-737.551 -207.127)" fill="#4a2661"/>
    <path id="Path_343-2" data-name="Path 343" d="M802.582,220.546a2.434,2.434,0,1,0,2.438,2.435,2.434,2.434,0,0,0-2.438-2.435h0" transform="translate(-737.019 -207.13)" fill="#4a2661"/>
    <path id="Path_344-2" data-name="Path 344" d="M799.08,221.082a.893.893,0,0,0-1.262,0l-.629.629-.628-.629a.893.893,0,0,0-1.262,1.262l.628.629-.628.628a.893.893,0,0,0,1.262,1.262l.628-.628.629.628a.893.893,0,0,0,1.262-1.262l-.629-.628.629-.629a.893.893,0,0,0,0-1.262" transform="translate(-737.065 -207.127)" fill="#4a2661"/>
    <path id="Path_345" data-name="Path 345" d="M792.3,240.242a2.434,2.434,0,1,0,2.434,2.435h0a2.434,2.434,0,0,0-2.434-2.434" transform="translate(-737.112 -206.951)" fill="#4a2661"/>
    <path id="Path_346" data-name="Path 346" d="M788.8,240.777a.894.894,0,0,0-1.262,0l-.628.628-.628-.628a.9.9,0,0,0-1.272,1.262h0l.628.628-.628.629a.893.893,0,0,0,1.262,1.262l.628-.629.629.629a.893.893,0,0,0,1.262-1.262l-.629-.629.629-.628a.893.893,0,0,0,0-1.262" transform="translate(-737.159 -206.948)" fill="#4a2661"/>
    <path id="Path_347" data-name="Path 347" d="M756.5,216.01c-.651.414-1.287.847-1.9,1.286l-1.352-2.512-1.4,4.659,4.648,1.392-1.46-2.707c.629-.453,1.284-.9,1.954-1.328a.468.468,0,0,0-.471-.809l-.031.02" transform="translate(-737.458 -207.182)" fill="#4a2661"/>
    <path id="Path_348" data-name="Path 348" d="M778.6,208.09c-1.645.251-3.285.567-4.874.929a.469.469,0,0,0,.21.915c1.567-.359,3.186-.667,4.807-.917a.469.469,0,0,0-.143-.927" transform="translate(-737.262 -207.243)" fill="#4a2661"/>
    <path id="Path_349" data-name="Path 349" d="M770.909,209.735c-1.613.447-3.2.958-4.727,1.52a.468.468,0,1,0,.324.879h0c1.5-.551,3.068-1.054,4.655-1.5a.469.469,0,1,0-.251-.9h0" transform="translate(-737.33 -207.228)" fill="#4a2661"/>
    <path id="Path_350" data-name="Path 350" d="M786.43,207.324c-1.655.073-3.319.2-4.946.376a.468.468,0,0,0,.052.934h.052c1.605-.18,3.248-.307,4.883-.376a.469.469,0,0,0-.041-.937" transform="translate(-737.192 -207.25)" fill="#4a2661"/>
    <path id="Path_351" data-name="Path 351" d="M763.475,212.334c-1.552.666-3.056,1.4-4.472,2.176a.469.469,0,1,0,.452.821c1.39-.764,2.867-1.482,4.391-2.135a.469.469,0,1,0-.369-.862h0" transform="translate(-737.395 -207.205)" fill="#4a2661"/>
    <path id="Path_352" data-name="Path 352" d="M809.76,210.1c-1.559-.467-3.177-.88-4.807-1.24a.469.469,0,0,0-.2.916h0c1.606.35,3.2.761,4.737,1.222a.469.469,0,1,0,.268-.9" transform="translate(-736.98 -207.236)" fill="#4a2661"/>
    <path id="Path_353" data-name="Path 353" d="M794.288,207.391c-1.633-.1-3.308-.147-4.958-.14a.469.469,0,1,0,0,.938c1.633-.007,3.279.039,4.9.138h.029a.468.468,0,1,0,.03-.936" transform="translate(-737.121 -207.25)" fill="#4a2661"/>
    <path id="Path_354" data-name="Path 354" d="M817.133,212.869c-1.472-.675-3.022-1.3-4.607-1.862a.468.468,0,0,0-.313.879c1.559.552,3.083,1.169,4.531,1.83a.469.469,0,0,0,.39-.853" transform="translate(-736.912 -207.216)" fill="#4a2661"/>
    <path id="Path_355" data-name="Path 355" d="M824.011,216.728a45.385,45.385,0,0,0-4.271-2.567.468.468,0,1,0-.44.827h0a44.561,44.561,0,0,1,4.176,2.513.469.469,0,1,0,.529-.775h0" transform="translate(-736.847 -207.188)" fill="#4a2661"/>
    <path id="Path_356" data-name="Path 356" d="M802.1,208.3c-1.611-.278-3.266-.5-4.915-.672a.469.469,0,0,0-.095.933h0c1.633.165,3.266.389,4.851.663a.469.469,0,0,0,.159-.924h0" transform="translate(-737.05 -207.247)" fill="#4a2661"/>
    <path id="Path_357" data-name="Path 357" d="M828.361,220.19c-.628-.586-1.3-1.164-2-1.722a.469.469,0,1,0-.585.733h0c.678.542,1.332,1.106,1.947,1.676a.468.468,0,1,0,.638-.686h0" transform="translate(-736.788 -207.149)" fill="#4a2661"/>
  </g>
</svg>
