<svg id="m4YBcQ.tif" xmlns="http://www.w3.org/2000/svg" width="12.779" height="12.775" viewBox="0 0 12.779 12.775">
  <g id="Group_2630" data-name="Group 2630" transform="translate(0 0)">
    <path id="Path_5378" data-name="Path 5378" d="M-112.921-43.213h-.324c-.006-.005-.012-.013-.019-.015a1.063,1.063,0,0,1-.885-1.153v-.43h-.151c-.5,0-1,.006-1.5,0a1.577,1.577,0,0,1-1.537-1.467c-.021-.76-.01-1.522-.006-2.283a.514.514,0,0,1,.478-.5.527.527,0,0,1,.558.383.862.862,0,0,1,.021.222c0,.669,0,1.339,0,2.008a.533.533,0,0,0,.576.576c.478,0,.956,0,1.435,0,.036,0,.073,0,.123-.007v-4.257q0-1.84,0-3.68a1.059,1.059,0,0,1,.728-1.051c.023-.009.044-.022.1-.05h-.16c-.724,0-1.447.012-2.171,0a.575.575,0,0,0-.632.628c.013.494,0,.99,0,1.485a.516.516,0,0,1-.242.464.5.5,0,0,1-.534.025.489.489,0,0,1-.283-.452q0-.861,0-1.721a1.172,1.172,0,0,1,.039-.271,1.59,1.59,0,0,1,1.555-1.219q2.888,0,5.776.006a1.056,1.056,0,0,1,1.141,1.155q0,4.722,0,9.443a1.077,1.077,0,0,1-.785,1.074Q-111.269-43.764-112.921-43.213Z" transform="translate(121.607 55.988)" fill="#424242"/>
    <path id="Path_5379" data-name="Path 5379" d="M-132.78-43.787a2.909,2.909,0,0,1,.271-.378c.656-.666,1.32-1.326,1.983-1.987a.536.536,0,0,1,.8-.018.543.543,0,0,1,.145.387q0,.711,0,1.422v.15h.141c.661,0,1.323,0,1.984,0a.525.525,0,0,1,.522.416.517.517,0,0,1-.3.6.785.785,0,0,1-.291.052c-.632,0-1.264,0-1.9,0h-.164V-43q0,.7,0,1.4a.537.537,0,0,1-.333.547.534.534,0,0,1-.612-.151c-.685-.686-1.372-1.369-2.053-2.058a1.8,1.8,0,0,1-.2-.3Z" transform="translate(132.78 49.002)" fill="#424242"/>
  </g>
</svg>
