<svg xmlns="http://www.w3.org/2000/svg" xmlns:xlink="http://www.w3.org/1999/xlink" width="67.761" height="26.445" viewBox="0 0 67.761 26.445">
  <defs>
    <clipPath id="clip-path">
      <rect id="Rectangle_6010" data-name="Rectangle 6010" width="67.761" height="26.445" fill="none"/>
    </clipPath>
  </defs>
  <g id="Group_13539" data-name="Group 13539" transform="translate(-22.5 -11.288)">
    <g id="Group_12560" data-name="Group 12560" transform="translate(22.5 11.288)">
      <g id="Group_12559" data-name="Group 12559" clip-path="url(#clip-path)">
        <path id="Path_14670" data-name="Path 14670" d="M68.763,108.365a1.286,1.286,0,0,1-.891-.411,4.767,4.767,0,0,1-.644-.807,7.293,7.293,0,0,1-1.494.866,4.9,4.9,0,0,1-1.89.352,3.662,3.662,0,0,1-1.71-.387,2.88,2.88,0,0,1-1.157-1.064,2.778,2.778,0,0,1-.408-1.46,2.635,2.635,0,0,1,.678-1.818,3.327,3.327,0,0,1,1.818-.993c.148-.034.515-.111,1.118-.234s1.1-.232,1.518-.331c.362-.086.756-.19,1.174-.309a2.016,2.016,0,0,0-.312-1.034,1.508,1.508,0,0,0-1.18-.338,2.662,2.662,0,0,0-1.232.22,1.964,1.964,0,0,0-.689.669,8.011,8.011,0,0,1-.476.686.955.955,0,0,1-.766.249,1.253,1.253,0,0,1-.852-.317,1.074,1.074,0,0,1-.374-.84,2.248,2.248,0,0,1,.491-1.36,3.409,3.409,0,0,1,1.48-1.05,6.465,6.465,0,0,1,2.419-.4,6.847,6.847,0,0,1,2.541.386,2.527,2.527,0,0,1,1.389,1.288,5.35,5.35,0,0,1,.39,2.214q0,.831,0,1.411t-.013,1.289a4.515,4.515,0,0,0,.209,1.311,3.876,3.876,0,0,1,.231,1,1.111,1.111,0,0,1-.427.849,1.393,1.393,0,0,1-.938.36m-1.874-4.649c-.321.1-.725.2-1.206.3-.652.139-1.109.243-1.359.308a1.63,1.63,0,0,0-.629.339.754.754,0,0,0-.256.617.949.949,0,0,0,.326.729,1.252,1.252,0,0,0,.894.31,2.53,2.53,0,0,0,1.177-.279,1.813,1.813,0,0,0,.767-.693,3.4,3.4,0,0,0,.287-1.631" transform="translate(-50.5 -81.92)" fill="#5a5b5e"/>
        <path id="Path_14671" data-name="Path 14671" d="M135.156,90.853a1.143,1.143,0,0,1-.842-.306,5.784,5.784,0,0,1-.664-.888l-1.926-3.165-.977.924v1.768a1.686,1.686,0,0,1-.43,1.225,1.367,1.367,0,0,1-1,.443,1.312,1.312,0,0,1-1.045-.45,1.85,1.85,0,0,1-.371-1.234V79.108a2.245,2.245,0,0,1,.351-1.345,1.251,1.251,0,0,1,1.065-.512,1.326,1.326,0,0,1,1.053.458,1.885,1.885,0,0,1,.38,1.261v5.1l2.223-2.332a6.673,6.673,0,0,1,.785-.738,1.287,1.287,0,0,1,.779-.238,1.268,1.268,0,0,1,.907.35,1.18,1.18,0,0,1,.371.885c0,.43-.331.928-1.042,1.568l-1.1,1.006,2.308,3.627c.185.293.314.509.395.661a1.149,1.149,0,0,1,.146.536,1.481,1.481,0,0,1-.375,1.057,1.307,1.307,0,0,1-.99.4" transform="translate(-106.634 -64.408)" fill="#5a5b5e"/>
        <path id="Path_14672" data-name="Path 14672" d="M186.328,92.371a3.293,3.293,0,0,1-1.813-.412,1.974,1.974,0,0,1-.853-1.173,7.249,7.249,0,0,1-.186-1.819V84.687h-.062a1.365,1.365,0,0,1-.945-.306,1.035,1.035,0,0,1-.35-.8,1,1,0,0,1,.369-.8,1.474,1.474,0,0,1,.978-.3h.01V81.317c0-.386.01-.695.031-.918a1.572,1.572,0,0,1,.2-.661,1.31,1.31,0,0,1,.487-.482,1.382,1.382,0,0,1,.7-.185,1.413,1.413,0,0,1,.982.4,1.25,1.25,0,0,1,.382.683,5.165,5.165,0,0,1,.07.969v1.358h.615a1.348,1.348,0,0,1,.932.3,1.028,1.028,0,0,1,.346.795.924.924,0,0,1-.513.888,2.648,2.648,0,0,1-1.189.217h-.191v4.089a6.821,6.821,0,0,0,.037.819.62.62,0,0,0,.145.349.519.519,0,0,0,.364.1,2.71,2.71,0,0,0,.511-.068,3.135,3.135,0,0,1,.6-.079.955.955,0,0,1,.691.3,1.015,1.015,0,0,1,.3.743,1.185,1.185,0,0,1-.763,1.1,4.4,4.4,0,0,1-1.9.328" transform="translate(-151.842 -65.925)" fill="#5a5b5e"/>
        <path id="Path_14673" data-name="Path 14673" d="M227.052,108.452a1.31,1.31,0,0,1-1.031-.457,1.813,1.813,0,0,1-.386-1.227v-6.75a1.757,1.757,0,0,1,.389-1.223,1.334,1.334,0,0,1,1.027-.436,1.376,1.376,0,0,1,1.037.432,1.617,1.617,0,0,1,.406,1.157v6.819a1.765,1.765,0,0,1-.4,1.242,1.362,1.362,0,0,1-1.039.443" transform="translate(-188.124 -82.007)" fill="#5a5b5e"/>
        <path id="Path_14674" data-name="Path 14674" d="M262.736,90.853a1.143,1.143,0,0,1-.842-.306,5.786,5.786,0,0,1-.664-.888L259.3,86.494l-.977.924v1.768a1.686,1.686,0,0,1-.43,1.225,1.367,1.367,0,0,1-1,.443,1.312,1.312,0,0,1-1.045-.45,1.85,1.85,0,0,1-.371-1.234V79.108a2.245,2.245,0,0,1,.351-1.345,1.251,1.251,0,0,1,1.065-.512,1.326,1.326,0,0,1,1.053.458,1.885,1.885,0,0,1,.38,1.261v5.1l2.223-2.332a6.677,6.677,0,0,1,.785-.738,1.287,1.287,0,0,1,.779-.238,1.268,1.268,0,0,1,.907.35,1.18,1.18,0,0,1,.371.885c0,.43-.331.928-1.042,1.568l-1.1,1.006,2.308,3.627c.185.293.314.509.395.661a1.15,1.15,0,0,1,.146.536,1.481,1.481,0,0,1-.375,1.057,1.307,1.307,0,0,1-.99.4" transform="translate(-213.004 -64.408)" fill="#5a5b5e"/>
        <path id="Path_14675" data-name="Path 14675" d="M316.594,108.365a1.286,1.286,0,0,1-.891-.411,4.768,4.768,0,0,1-.644-.807,7.283,7.283,0,0,1-1.494.866,4.9,4.9,0,0,1-1.889.352,3.662,3.662,0,0,1-1.71-.387,2.88,2.88,0,0,1-1.157-1.064,2.78,2.78,0,0,1-.408-1.46,2.635,2.635,0,0,1,.678-1.818,3.326,3.326,0,0,1,1.818-.993c.148-.034.515-.111,1.118-.234s1.1-.232,1.518-.331c.362-.086.756-.19,1.174-.309a2.016,2.016,0,0,0-.312-1.034,1.508,1.508,0,0,0-1.18-.338,2.662,2.662,0,0,0-1.232.22,1.964,1.964,0,0,0-.689.669,8.066,8.066,0,0,1-.476.686.955.955,0,0,1-.766.249,1.252,1.252,0,0,1-.852-.317,1.073,1.073,0,0,1-.374-.84,2.249,2.249,0,0,1,.491-1.36,3.411,3.411,0,0,1,1.48-1.05,6.465,6.465,0,0,1,2.419-.4,6.849,6.849,0,0,1,2.541.386,2.527,2.527,0,0,1,1.389,1.288,5.351,5.351,0,0,1,.39,2.214q0,.831,0,1.411t-.013,1.289a4.515,4.515,0,0,0,.209,1.311,3.875,3.875,0,0,1,.231,1,1.111,1.111,0,0,1-.427.849,1.392,1.392,0,0,1-.938.36m-1.874-4.649c-.321.1-.725.2-1.206.3-.651.139-1.109.243-1.359.308a1.63,1.63,0,0,0-.629.339.754.754,0,0,0-.256.617.949.949,0,0,0,.326.729,1.252,1.252,0,0,0,.894.31,2.53,2.53,0,0,0,1.177-.279,1.813,1.813,0,0,0,.767-.693,3.4,3.4,0,0,0,.287-1.631" transform="translate(-257.129 -81.92)" fill="#5a5b5e"/>
        <path id="Path_14676" data-name="Path 14676" d="M5.634,91.937a1.452,1.452,0,0,1-1.113-.469A1.925,1.925,0,0,1,4.1,90.123V81.168H1.546A1.658,1.658,0,0,1,.4,80.814,1.324,1.324,0,0,1,.42,78.9a1.685,1.685,0,0,1,1.126-.345H9.705a1.678,1.678,0,0,1,1.157.358,1.234,1.234,0,0,1,.406.954,1.214,1.214,0,0,1-.413.952,1.694,1.694,0,0,1-1.15.352H7.154v8.955a1.935,1.935,0,0,1-.42,1.349,1.435,1.435,0,0,1-1.1.465" transform="translate(0 -65.492)" fill="#5a5b5e"/>
        <path id="Path_14677" data-name="Path 14677" d="M370.473,92.371a3.293,3.293,0,0,1-1.813-.412,1.974,1.974,0,0,1-.853-1.173,7.25,7.25,0,0,1-.186-1.819V84.687h-.062a1.365,1.365,0,0,1-.945-.306,1.034,1.034,0,0,1-.35-.8,1,1,0,0,1,.369-.8,1.475,1.475,0,0,1,.978-.3h.01V81.317c0-.386.01-.695.031-.918a1.572,1.572,0,0,1,.2-.661,1.31,1.31,0,0,1,.487-.482,1.382,1.382,0,0,1,.7-.185,1.413,1.413,0,0,1,.982.4,1.251,1.251,0,0,1,.382.683,5.168,5.168,0,0,1,.07.969v1.358h.615a1.348,1.348,0,0,1,.932.3,1.028,1.028,0,0,1,.346.795.924.924,0,0,1-.513.888,2.648,2.648,0,0,1-1.189.217h-.191v4.089a6.821,6.821,0,0,0,.037.819.62.62,0,0,0,.145.349.52.52,0,0,0,.364.1,2.71,2.71,0,0,0,.511-.068,3.133,3.133,0,0,1,.6-.079.956.956,0,0,1,.691.3,1.015,1.015,0,0,1,.3.743,1.185,1.185,0,0,1-.763,1.1,4.4,4.4,0,0,1-1.9.328" transform="translate(-305.373 -65.925)" fill="#5a5b5e"/>
        <path id="Path_14678" data-name="Path 14678" d="M207.429.208C206.322.1,205.193.035,204.071,0a.347.347,0,1,0-.021.694c1.107.034,2.222.1,3.314.2h.033a.347.347,0,0,0,.032-.692" transform="translate(-169.846 -0.001)" fill="#4a2661"/>
        <path id="Path_14679" data-name="Path 14679" d="M127.446,3.794c-1.112.178-2.223.394-3.3.643a.347.347,0,0,0,.077.685.351.351,0,0,0,.078-.009c1.065-.245,2.161-.458,3.257-.634a.347.347,0,1,0-.11-.685" transform="translate(-103.279 -3.16)" fill="#4a2661"/>
        <path id="Path_14680" data-name="Path 14680" d="M88.867,12.835c-1.082.331-2.152.7-3.182,1.105a.347.347,0,1,0,.253.646c1.013-.4,2.067-.762,3.132-1.088a.347.347,0,0,0-.2-.664" transform="translate(-71.256 -10.688)" fill="#4a2661"/>
        <path id="Path_14681" data-name="Path 14681" d="M52.534,27.516c-1.024.5-2.021,1.043-2.962,1.613a.347.347,0,1,0,.36.594c.923-.559,1.9-1.092,2.907-1.583a.347.347,0,0,0-.3-.623" transform="translate(-41.191 -22.912)" fill="#4a2661"/>
        <path id="Path_14682" data-name="Path 14682" d="M167.219.008c-1.121.035-2.25.106-3.357.21a.347.347,0,0,0,.032.692h.033c1.092-.1,2.207-.173,3.314-.207a.347.347,0,0,0-.022-.694" transform="translate(-136.358 -0.006)" fill="#4a2661"/>
        <path id="Path_14683" data-name="Path 14683" d="M247.428,4.389c-1.081-.248-2.193-.463-3.3-.639a.347.347,0,1,0-.109.685c1.1.174,2.192.387,3.258.631a.347.347,0,0,0,.155-.676" transform="translate(-203.204 -3.123)" fill="#4a2661"/>
        <path id="Path_14684" data-name="Path 14684" d="M323.761,29c-.942-.569-1.939-1.11-2.964-1.609a.347.347,0,0,0-.3.624c1.006.49,1.985,1.022,2.909,1.58a.347.347,0,0,0,.359-.594" transform="translate(-267.049 -22.807)" fill="#4a2661"/>
        <path id="Path_14685" data-name="Path 14685" d="M286.514,13.853c-1.03-.4-2.1-.772-3.183-1.1a.347.347,0,0,0-.2.664c1.065.325,2.12.69,3.133,1.085a.347.347,0,0,0,.252-.647" transform="translate(-235.853 -10.619)" fill="#4a2661"/>
        <path id="Path_14686" data-name="Path 14686" d="M26.077,48.435c-.471.355-.932.724-1.37,1.1a.347.347,0,0,0,.449.529c.428-.364.879-.724,1.338-1.071a.347.347,0,0,0-.418-.554" transform="translate(-20.497 -40.325)" fill="#4a2661"/>
        <path id="Path_14687" data-name="Path 14687" d="M356.751,47.75l-.189-3.571L355.106,45.8c-.363-.3-.736-.6-1.118-.885a.347.347,0,0,0-.417.555c.366.275.722.559,1.07.847L353.2,48.009Z" transform="translate(-294.476 -36.834)" fill="#4a2661"/>
        <path id="Path_14688" data-name="Path 14688" d="M228.417,77.179a.587.587,0,0,0-.829,0l-.413.412-.412-.412a.587.587,0,0,0-.829.829l.412.412-.412.413a.587.587,0,0,0,.829.829l.412-.413.413.413a.587.587,0,0,0,.829-.829L228,78.42l.413-.412a.587.587,0,0,0,0-.829" transform="translate(-188.278 -67.746)" fill="#45285e"/>
        <circle id="Ellipse_417" data-name="Ellipse 417" cx="1.5" cy="1.5" r="1.5" transform="translate(37.5 12.712)" fill="#4a2661"/>
      </g>
    </g>
  </g>
</svg>
