<svg id="Group_6119" data-name="Group 6119" xmlns="http://www.w3.org/2000/svg" width="18.04" height="13.513" viewBox="0 0 18.04 13.513">
  <path id="Path_7623" data-name="Path 7623" d="M-164.548,583.907c.3-.894.576-1.1,1.457-1.1h15.306a1.171,1.171,0,0,1,1.253,1.032,1.225,1.225,0,0,1-1.03,1.473c-.1.007-.193,0-.29,0h-15.253c-.885,0-1.144-.2-1.443-1.115Z" transform="translate(164.548 -571.803)" fill="#bfbfbf"/>
  <path id="Path_7624" data-name="Path 7624" d="M-164.548,477.792a4.681,4.681,0,0,1,.354-.7.935.935,0,0,1,.8-.37c.528,0,1.056,0,1.584,0h14.042a1.162,1.162,0,0,1,1.248,1.1,1.223,1.223,0,0,1-.958,1.379,3.452,3.452,0,0,1-.422.014h-15.2c-.884,0-1.119-.174-1.446-1.071Z" transform="translate(164.548 -471.211)" fill="#bfbfbf"/>
  <path id="Path_7622" data-name="Path 7622" d="M-147.388,370.387a1.306,1.306,0,0,1,.865,1.071,1.241,1.241,0,0,1-.845,1.39,2.165,2.165,0,0,1-.5.046q-7.612,0-15.225,0c-.881,0-1.155-.207-1.457-1.1V371.5a1.416,1.416,0,0,1,.9-1.115Z" transform="translate(164.548 -370.387)" fill="#bfbfbf"/>
</svg>
