<svg xmlns="http://www.w3.org/2000/svg" xmlns:xlink="http://www.w3.org/1999/xlink" width="14.208" height="17.046" viewBox="0 0 14.208 17.046">
  <defs>
    <clipPath id="clip-path">
      <rect id="Rectangle_6078" data-name="Rectangle 6078" width="14.208" height="17.046" fill="#bfbfbf"/>
    </clipPath>
  </defs>
  <g id="Group_13321" data-name="Group 13321" clip-path="url(#clip-path)">
    <path id="Path_14768" data-name="Path 14768" d="M12.937,13.967H1.707c.083-.267.179-.521.241-.782.414-1.762.816-3.527,1.232-5.289A4.006,4.006,0,0,1,4.766,5.562a4.305,4.305,0,0,1,6.623,2.009,13.168,13.168,0,0,1,.355,1.57A45.325,45.325,0,0,0,12.932,13.9a.427.427,0,0,1,0,.071" transform="translate(-0.291 -0.802)" fill="#bfbfbf"/>
    <path id="Path_14769" data-name="Path 14769" d="M7.119,16.258h6.164a.852.852,0,0,1,.842.546.869.869,0,0,1-.178.991.905.905,0,0,1-.7.28q-2.066,0-4.133,0H.971a.9.9,0,0,1-.951-.723A.892.892,0,0,1,.9,16.259c1.263,0,2.526,0,3.789,0h2.43" transform="translate(0 -2.767)" fill="#bfbfbf"/>
    <path id="Path_14770" data-name="Path 14770" d="M9.391,3.711a4.812,4.812,0,0,0-2.384,0c-.021-.323-.04-.627-.059-.932-.03-.464-.072-.928-.087-1.392a1.342,1.342,0,0,1,2.655-.322,1.37,1.37,0,0,1,.024.359c-.037.7-.081,1.4-.124,2.1,0,.053-.014.106-.025.186" transform="translate(-1.168 0)" fill="#bfbfbf"/>
    <path id="Path_14771" data-name="Path 14771" d="M9.914,18.843a1.729,1.729,0,0,1-1.649,1.41,1.753,1.753,0,0,1-1.778-1.41Z" transform="translate(-1.104 -3.208)" fill="#bfbfbf"/>
  </g>
</svg>
