<svg xmlns="http://www.w3.org/2000/svg" xmlns:xlink="http://www.w3.org/1999/xlink" width="14" height="8.036" viewBox="0 0 14 8.036">
  <defs>
    <clipPath id="clip-path">
      <rect id="Rectangle_6089" data-name="Rectangle 6089" width="14" height="8.036" fill="none"/>
    </clipPath>
  </defs>
  <g id="Group_13608" data-name="Group 13608" clip-path="url(#clip-path)">
    <path id="Path_14804" data-name="Path 14804" d="M13.563,7.572a.437.437,0,0,1-.437-.437V1.525a.652.652,0,0,0-.651-.651H1.525a.652.652,0,0,0-.651.651v5.61a.437.437,0,0,1-.874,0V1.525A1.527,1.527,0,0,1,1.525,0h10.95A1.527,1.527,0,0,1,14,1.525v5.61a.437.437,0,0,1-.437.437" transform="translate(0 0)" fill="#13915b"/>
    <path id="Path_14805" data-name="Path 14805" d="M23.5,23.458a1.149,1.149,0,0,1,.084-.111Q25.257,21.674,26.93,20a.408.408,0,0,1,.631,0,.4.4,0,0,1,.01.511,1.029,1.029,0,0,1-.086.093q-1.824,1.824-3.644,3.651a.448.448,0,0,1-.686,0c-.663-.679-1.339-1.345-2.01-2.017a.412.412,0,1,1,.57-.593c.221.216.438.436.656.654l1.048,1.048c.025.025.044.056.082.1" transform="translate(-17.331 -16.385)" fill="#13915b"/>
  </g>
</svg>
