<svg xmlns="http://www.w3.org/2000/svg" xmlns:xlink="http://www.w3.org/1999/xlink" width="25.94" height="16.483" viewBox="0 0 25.94 16.483">
  <defs>
    <clipPath id="clip-path">
      <rect id="Rectangle_1299" data-name="Rectangle 1299" width="25.94" height="16.483" fill="#bfbfbf"/>
    </clipPath>
  </defs>
  <g id="Group_5354" data-name="Group 5354" clip-path="url(#clip-path)">
    <path id="Path_7707" data-name="Path 7707" d="M2.243,0H23.7a2.249,2.249,0,0,1,2.243,2.244V14.239A2.247,2.247,0,0,1,23.7,16.483H2.243A2.249,2.249,0,0,1,0,14.239V2.244A2.25,2.25,0,0,1,2.243,0M3.936,2.173a1.7,1.7,0,0,1-.5,1.2h0a1.7,1.7,0,0,1-1.205.5v.479H5.019a1.448,1.448,0,0,1,.9.307,1.021,1.021,0,0,1,.4.794v5.764a1.022,1.022,0,0,1-.4.794,1.452,1.452,0,0,1-.9.306H2.23v.249a1.7,1.7,0,0,1,1.205.5h0a1.7,1.7,0,0,1,.5,1.205H22.08a1.7,1.7,0,0,1,.5-1.205h0a1.7,1.7,0,0,1,1.205-.5V12.26H21a1.448,1.448,0,0,1-.9-.307,1.022,1.022,0,0,1-.4-.794V5.4a1.021,1.021,0,0,1,.4-.794A1.447,1.447,0,0,1,21,4.3h2.789V3.878a1.7,1.7,0,0,1-1.205-.5h0a1.7,1.7,0,0,1-.5-1.2H13.244v3.55a2.513,2.513,0,0,1,0,5v3.549h-.472V10.726a2.512,2.512,0,0,1,0-5V2.173Zm-.495.236H2.465v.975a1.229,1.229,0,0,0,.976-.975m20.109,0h-.976a1.229,1.229,0,0,0,.976.975Zm0,11.632v-.976a1.231,1.231,0,0,0-.976.976Zm-21.084,0h.976a1.231,1.231,0,0,0-.976-.976ZM5.019,4.83H2.465v7.02H5.019a.972.972,0,0,0,.61-.2.558.558,0,0,0,.227-.427V5.458a.558.558,0,0,0-.227-.427.972.972,0,0,0-.61-.2M23.55,4.767H21a.972.972,0,0,0-.61.2.554.554,0,0,0-.226.427v5.764a.557.557,0,0,0,.226.427.977.977,0,0,0,.61.2H23.55ZM13.244,6.2v4.054a2.04,2.04,0,0,0,0-4.054m-.472,4.054V6.2a2.04,2.04,0,0,0,0,4.054M23.7,1.259H2.243a.989.989,0,0,0-.985.985V14.239a.989.989,0,0,0,.985.986H23.7a.99.99,0,0,0,.986-.986V2.244a.99.99,0,0,0-.986-.985" transform="translate(0 0)" fill="#bfbfbf" fill-rule="evenodd"/>
  </g>
</svg>
