<svg xmlns="http://www.w3.org/2000/svg" xmlns:xlink="http://www.w3.org/1999/xlink" width="12.151" height="17.697" viewBox="0 0 12.151 17.697">
  <defs>
    <clipPath id="clip-path">
      <rect id="Rectangle_6084" data-name="Rectangle 6084" width="12.151" height="17.697" transform="translate(0 0)" fill="#bfbfbf"/>
    </clipPath>
  </defs>
  <g id="Group_13333" data-name="Group 13333" transform="translate(0 0)">
    <g id="Group_13332" data-name="Group 13332" clip-path="url(#clip-path)">
      <path id="Path_14785" data-name="Path 14785" d="M6.42,0c.367.068.74.11,1.1.209a5.265,5.265,0,0,1,3.1,2.279,5.382,5.382,0,0,1,.862,3.061c-.006.645,0,1.29,0,1.935a.188.188,0,0,0,.114.2.94.94,0,0,1,.559.918c0,1.2.022,2.4-.04,3.593a5.467,5.467,0,0,1-1.039,2.869,6.014,6.014,0,0,1-3.046,2.3,5.819,5.819,0,0,1-2.928.24A5.979,5.979,0,0,1,.755,14.539a5.363,5.363,0,0,1-.73-2.564C0,10.858,0,9.741,0,8.624A1.016,1.016,0,0,1,.58,7.64a.248.248,0,0,0,.088-.191C.678,6.678.651,5.9.689,5.134A5.238,5.238,0,0,1,2.75,1.156,5.2,5.2,0,0,1,5.647.024.48.48,0,0,0,5.729,0ZM9.6,7.513c.005-.056.012-.095.012-.135,0-.645.007-1.29,0-1.935a3.967,3.967,0,0,0-.075-.754,3.512,3.512,0,0,0-4.8-2.549A3.365,3.365,0,0,0,2.552,5.23c-.044.723-.014,1.451-.017,2.176a.7.7,0,0,0,.018.107Zm-3.527,6.8h.863c.281,0,.318-.048.264-.329-.089-.468-.174-.937-.268-1.4A.278.278,0,0,1,7,12.315a1.2,1.2,0,0,0-.1-1.638,1.2,1.2,0,0,0-1.74,1.655.289.289,0,0,1,.07.28c-.1.485-.186.971-.276,1.456-.034.182.016.242.2.243.305,0,.61,0,.915,0" fill="#bfbfbf"/>
    </g>
  </g>
</svg>
