<svg xmlns="http://www.w3.org/2000/svg" xmlns:xlink="http://www.w3.org/1999/xlink" width="13.675" height="17.495" viewBox="0 0 13.675 17.495">
  <defs>
    <clipPath id="clip-path">
      <rect id="Rectangle_6053" data-name="Rectangle 6053" width="13.675" height="17.495" transform="translate(0 0)" fill="#bfbfbf"/>
    </clipPath>
  </defs>
  <g id="Group_13311" data-name="Group 13311" transform="translate(0 0)">
    <g id="Group_13310" data-name="Group 13310" clip-path="url(#clip-path)">
      <path id="Path_14762" data-name="Path 14762" d="M0,16.263c.085-.451.139-.912.261-1.353a6.441,6.441,0,0,1,2.775-3.771,6.868,6.868,0,0,1,4.843-1,6.459,6.459,0,0,1,5.254,3.968,7.089,7.089,0,0,1,.526,3.381H.286c-.1,0-.191,0-.286,0V16.263" fill="#bfbfbf"/>
      <path id="Path_14763" data-name="Path 14763" d="M10.948,4.467A4.341,4.341,0,0,1,8.956,8.073a3.919,3.919,0,0,1-5.073-.7A4.524,4.524,0,0,1,4.16,1.043a3.958,3.958,0,0,1,5.634.285,4.63,4.63,0,0,1,1.154,3.139" fill="#bfbfbf"/>
    </g>
  </g>
</svg>
