<svg xmlns="http://www.w3.org/2000/svg" xmlns:xlink="http://www.w3.org/1999/xlink" width="14.251" height="14.254" viewBox="0 0 14.251 14.254">
  <defs>
    <clipPath id="clip-path">
      <rect id="Rectangle_6080" data-name="Rectangle 6080" width="14.251" height="14.254" transform="translate(0 0)" fill="#bfbfbf"/>
    </clipPath>
  </defs>
  <g id="Group_13326" data-name="Group 13326" transform="translate(0 0)">
    <g id="Group_13325" data-name="Group 13325" clip-path="url(#clip-path)">
      <path id="Path_14776" data-name="Path 14776" d="M14.25,7.145q0,2.608,0,5.217a1.814,1.814,0,0,1-1.42,1.839,2.162,2.162,0,0,1-.482.05q-5.226,0-10.45,0A1.826,1.826,0,0,1,0,12.355Q0,7.129,0,1.9A1.829,1.829,0,0,1,1.895,0Q7.128,0,12.363,0a1.827,1.827,0,0,1,1.886,1.891c0,1.75,0,3.5,0,5.252M5.634,7.069c0,.551,0,1.1,0,1.652A.718.718,0,0,0,6.8,9.315c.748-.548,1.5-1.092,2.244-1.642a.707.707,0,0,0,0-1.2C8.3,5.928,7.553,5.389,6.81,4.845a.719.719,0,0,0-1.177.607c0,.539,0,1.078,0,1.617M2.962,1.783c-.373,0-.725,0-1.077,0-.035,0-.1.052-.1.081-.007.362,0,.724,0,1.091H2.962Zm9.507,1.179c0-.371,0-.728-.006-1.085,0-.032-.079-.089-.123-.09-.236-.009-.474,0-.711,0H11.29v1.18Zm-9.513,9.51V11.293H1.783c0,.374,0,.737,0,1.1,0,.026.056.075.087.075.357,0,.714,0,1.082,0m8.333,0c.375,0,.727,0,1.079,0,.033,0,.094-.043.1-.067.006-.368,0-.735,0-1.106H11.289ZM7.706,1.8H6.541V2.962H7.706ZM6.545,12.457H7.709V11.292H6.545Zm-2.369-9.5H5.337V1.792H4.176Zm4.735,0h1.168V1.792H8.911ZM5.34,11.294H4.172v1.169H5.34Zm4.739,0H8.917v1.169h1.162Z" fill="#bfbfbf"/>
    </g>
  </g>
</svg>
