<svg id="Group_12349" data-name="Group 12349" xmlns="http://www.w3.org/2000/svg" xmlns:xlink="http://www.w3.org/1999/xlink" width="16.822" height="9.633" viewBox="0 0 16.822 9.633">
  <defs>
    <clipPath id="clip-path">
      <rect id="Rectangle_2918" data-name="Rectangle 2918" width="16.822" height="9.633" transform="translate(0 0)" fill="#502464"/>
    </clipPath>
  </defs>
  <g id="Group_7878" data-name="Group 7878" transform="translate(0 0)" clip-path="url(#clip-path)">
    <path id="Path_12286" data-name="Path 12286" d="M44.556,33.611c.037,0,.074,0,.111,0a1.648,1.648,0,1,1-.111,0" transform="translate(-33.548 -30.434)" fill="#502464"/>
    <path id="Path_12287" data-name="Path 12287" d="M.827,1.345,9.64.233a4.817,4.817,0,0,1,5.171,1.495,1.434,1.434,0,1,1,1.1,2.648c0,.04.008.08.011.12a4.816,4.816,0,0,1-9.611.642c0-.07-.007-.139-.009-.208L.027,2.886c-.2-2.393.8-1.542.8-1.542m14.254.84a3.977,3.977,0,0,1,.7,1.7,1.04,1.04,0,0,0,.5-.9.9.9,0,0,0-.894-.836l-.06,0c-.063,0-.281-.013-.248.039M8.491,4.992a2.632,2.632,0,0,0,2.622,2.457q.089,0,.179-.006a2.632,2.632,0,1,0-2.8-2.45M1.1,2.652,6.428,3.717l.366.073a.117.117,0,0,0,.033,0,.164.164,0,0,0,.135-.153.182.182,0,0,0-.122-.209l-.315-.063L1.152,2.291a.154.154,0,0,0-.169.151.182.182,0,0,0,.122.209" transform="translate(0 -0.001)" fill="#502464"/>
  </g>
</svg>
