<svg xmlns="http://www.w3.org/2000/svg" width="17.5" height="16.69" viewBox="0 0 17.5 16.69">
  <path id="Path_14616" data-name="Path 14616" d="M280.689,46.308l2.5-5.135a.228.228,0,0,1,.407,0l2.553,5.112a.224.224,0,0,0,.169.122l5.658.795a.227.227,0,0,1,.126.387l-4.072,4.006a.228.228,0,0,0-.063.2l.994,5.625a.228.228,0,0,1-.328.242l-5.069-2.636a.238.238,0,0,0-.211,0l-5.044,2.682a.225.225,0,0,1-.33-.235l.94-5.635a.238.238,0,0,0-.067-.2l-4.112-3.967a.228.228,0,0,1,.126-.387l5.649-.848A.242.242,0,0,0,280.689,46.308Z" transform="translate(-274.675 -41.046)" fill="#502464"/>
</svg>
