<svg id="Group_12347" data-name="Group 12347" xmlns="http://www.w3.org/2000/svg" xmlns:xlink="http://www.w3.org/1999/xlink" width="18.078" height="12.276" viewBox="0 0 18.078 12.276">
  <defs>
    <clipPath id="clip-path">
      <rect id="Rectangle_2919" data-name="Rectangle 2919" width="18.078" height="12.276" transform="translate(0 0)" fill="#502464"/>
    </clipPath>
  </defs>
  <g id="Group_7880" data-name="Group 7880" transform="translate(0 0)" clip-path="url(#clip-path)">
    <path id="Path_12288" data-name="Path 12288" d="M9.032,9.366c-1.607,0-3.214-.015-4.82,0A4.139,4.139,0,0,1,.029,4.641,5.142,5.142,0,0,1,3.821.163,5.128,5.128,0,0,1,5.055.014C7.691,0,10.327.031,12.962,0a5.132,5.132,0,0,1,4.952,3.894,4.4,4.4,0,0,1-.74,3.916,3.884,3.884,0,0,1-3.22,1.553c-1.64.009-3.281,0-4.921,0m0-2.16V7.2c1.593,0,3.187.036,4.779-.01a2.839,2.839,0,0,0,2.719-3.32A3.819,3.819,0,0,0,12.77.61C10.283.6,7.8.593,5.309.615A3.686,3.686,0,0,0,1.827,2.9,2.982,2.982,0,0,0,1.814,5.6a2.819,2.819,0,0,0,2.741,1.6H9.032" transform="translate(0 0)" fill="#502464"/>
    <path id="Path_12289" data-name="Path 12289" d="M4.8,63.336a4.746,4.746,0,0,0,2.452,1.331,5.691,5.691,0,0,0,1.06.106q4.87.012,9.74,0a4.648,4.648,0,0,0,3.445-1.41.083.083,0,0,1,.072-.023c-.068.123-.131.248-.2.368a4,4,0,0,1-3.578,2.065q-4.608.021-9.216,0A4.068,4.068,0,0,1,4.84,63.423c-.015-.028-.025-.058-.038-.087" transform="translate(-4.152 -54.765)" fill="#502464"/>
    <path id="Path_12290" data-name="Path 12290" d="M5.066,72.878A4.641,4.641,0,0,0,7.48,74.449a6.463,6.463,0,0,0,1.492.189c2.925.017,5.85,0,8.775.013a4.838,4.838,0,0,0,4.014-1.811.738.738,0,0,1-.036.123A4.052,4.052,0,0,1,18,75.254q-4.569.013-9.139,0a4.082,4.082,0,0,1-3.764-2.307.559.559,0,0,1-.028-.07" transform="translate(-4.38 -62.984)" fill="#502464"/>
    <path id="Path_12291" data-name="Path 12291" d="M68.817,26.466a21.337,21.337,0,0,1,3.914.022c-.231,0-.435,0-.639,0-.3.007-.443.211-.323.487.193.443.4.88.593,1.322a.343.343,0,0,0,.346.225c.316,0,.632.005.947,0a.217.217,0,0,1,.232.144c.076.163.164.319.273.53a4.742,4.742,0,0,1-.8.164c-.826.024-1.652.017-2.478.02-.6,0-1.209,0-1.814,0-.147,0-.205-.037-.2-.191.013-.207.008-.417,0-.625,0-.108.039-.142.14-.177a2.422,2.422,0,0,0,.6-.264.757.757,0,0,0,.01-1.31,3.284,3.284,0,0,0-.6-.275c-.05-.022-.1-.036-.208-.072" transform="translate(-59.504 -22.816)" fill="#502464"/>
    <path id="Path_12292" data-name="Path 12292" d="M30.886,29.388H26.72a2.411,2.411,0,0,1-1.089-.207c.1-.191.185-.379.292-.556a.241.241,0,0,1,.176-.087c.322-.009.645-.008.967,0a.367.367,0,0,0,.378-.241c.189-.43.387-.856.575-1.286.13-.3-.007-.5-.334-.508a3.232,3.232,0,0,1-.635-.047c.039-.018.078-.051.116-.051q1.814,0,3.628,0a.714.714,0,0,1,.146.05c-.1.047-.149.071-.2.1a3.679,3.679,0,0,0-.716.384.692.692,0,0,0-.006,1.08,2.251,2.251,0,0,0,.7.375c.137.051.176.1.171.234-.009.252,0,.5,0,.767" transform="translate(-22.163 -22.827)" fill="#502464"/>
    <path id="Path_12293" data-name="Path 12293" d="M30.106,22.368c-.1-.194-.187-.346-.267-.5-.4-.767-.81-1.532-1.2-2.3a.476.476,0,0,0-.477-.291q-4.206.007-8.412,0a.476.476,0,0,0-.475.294c-.443.867-.9,1.729-1.346,2.593-.03.059-.064.116-.109.2a1.929,1.929,0,0,1-.57-.8.414.414,0,0,1,.016-.217,3.153,3.153,0,0,1,3.056-2.428h7.262A3.166,3.166,0,0,1,30.6,21.259a.593.593,0,0,1-.076.533c-.132.184-.266.366-.42.576" transform="translate(-14.904 -16.352)" fill="#502464"/>
    <path id="Path_12294" data-name="Path 12294" d="M30.406,11.561a3.9,3.9,0,0,0-1.886-1.415,4.144,4.144,0,0,0-1.2-.206c-2.446-.019-4.893-.012-7.34-.008A3.649,3.649,0,0,0,17.1,11.321c-.035.041-.067.084-.1.126a.667.667,0,0,1-.109.117,2.764,2.764,0,0,1,.7-1.263,3.112,3.112,0,0,1,2.361-1.039c2.467,0,4.933,0,7.4,0a3.176,3.176,0,0,1,2.992,2.088c.025.068.043.138.065.208" transform="translate(-14.607 -8.009)" fill="#502464"/>
    <path id="Path_12295" data-name="Path 12295" d="M30.6,32.638c.127-.246.233-.461.35-.67a.177.177,0,0,1,.127-.069c.146-.009.293,0,.467,0-.106.237-.2.453-.3.661a.193.193,0,0,1-.141.078c-.154.01-.308,0-.5,0" transform="translate(-26.461 -27.578)" fill="#502464"/>
    <path id="Path_12296" data-name="Path 12296" d="M97.3,32.63a.3.3,0,0,1-.047.018c-.515.036-.515.036-.722-.424l-.139-.311c.179,0,.329,0,.478,0,.031,0,.064.038.089.065a.407.407,0,0,1,.049.087l.291.562" transform="translate(-83.346 -27.593)" fill="#502464"/>
    <path id="Path_12297" data-name="Path 12297" d="M69.306,32.834v-.541c.022-.007.04-.018.047-.013a1.834,1.834,0,0,1,.4.281c.058.066-.2.237-.449.273" transform="translate(-59.927 -27.911)" fill="#502464"/>
    <path id="Path_12298" data-name="Path 12298" d="M61.53,32.326v.533c-.2,0-.439-.132-.446-.253s.194-.249.446-.281" transform="translate(-52.818 -27.952)" fill="#502464"/>
  </g>
</svg>
