<svg id="Group_7748" data-name="Group 7748" xmlns="http://www.w3.org/2000/svg" xmlns:xlink="http://www.w3.org/1999/xlink" width="18.491" height="18.472" viewBox="0 0 18.491 18.472">
  <defs>
    <clipPath id="clip-path">
      <rect id="Rectangle_2896" data-name="Rectangle 2896" width="18.491" height="18.472" fill="#bfbfbf"/>
    </clipPath>
  </defs>
  <g id="Group_7748-2" data-name="Group 7748" clip-path="url(#clip-path)">
    <path id="Path_12268" data-name="Path 12268" d="M11.825,5.777a4.225,4.225,0,0,0-5.066-.029A4.019,4.019,0,0,0,5.02,10.027a4.232,4.232,0,0,0,3.636,3.511v4.916A9.225,9.225,0,0,1,4.194,1.517a9.188,9.188,0,0,1,11.121.767L11.825,5.777" transform="translate(0 0)" fill="#bfbfbf"/>
    <path id="Path_12269" data-name="Path 12269" d="M17.011,13.342h4.925a9.186,9.186,0,0,1-8.583,8.6V17a4.355,4.355,0,0,0,3.658-3.662" transform="translate(-3.471 -3.468)" fill="#bfbfbf"/>
    <path id="Path_12270" data-name="Path 12270" d="M17.995,9.769a4.332,4.332,0,0,0-.789-1.934L20.72,4.322a9.232,9.232,0,0,1,2.245,5.447Z" transform="translate(-4.473 -1.123)" fill="#bfbfbf"/>
  </g>
</svg>
