<svg xmlns="http://www.w3.org/2000/svg" xmlns:xlink="http://www.w3.org/1999/xlink" width="17.834" height="14.461" viewBox="0 0 17.834 14.461">
  <defs>
    <clipPath id="clip-path">
      <rect id="Rectangle_6083" data-name="Rectangle 6083" width="17.834" height="14.461" fill="#bfbfbf"/>
    </clipPath>
  </defs>
  <g id="Group_13331" data-name="Group 13331" clip-path="url(#clip-path)">
    <path id="Path_14784" data-name="Path 14784" d="M0,8.069V7.094c.043-.279.077-.561.129-.838a7.43,7.43,0,0,1,2.25-4.131,7.265,7.265,0,0,1,6.495-2A7.411,7.411,0,0,1,13.69,3.109c.052.07.106.139.189.249a3.273,3.273,0,0,1,0-.54,1.6,1.6,0,0,1,.824-1.112,9.626,9.626,0,0,1,1.238-.582A2.42,2.42,0,0,0,17.05.4a.237.237,0,0,1,.428.073,4.1,4.1,0,0,1,.216,2.688,2.139,2.139,0,0,1-1.325,1.508.36.36,0,0,0-.154.15q-.519.845-1.029,1.695a.757.757,0,0,0-.085.274,7.516,7.516,0,0,1-.109.826,3.152,3.152,0,0,1-1.784,2.1,2.059,2.059,0,0,0-.76.625,16.784,16.784,0,0,1-2.109,2.311,2.158,2.158,0,0,1-.837.516.62.62,0,0,1-.828-.551,1.915,1.915,0,0,1,.109-.815c.3-.75.653-1.483.984-2.221.027-.061.06-.119.095-.189-.094-.024-.166-.046-.239-.059a.976.976,0,0,0-1.218.879,3.435,3.435,0,0,0,.005.538,5.852,5.852,0,0,1,.027.712,3.383,3.383,0,0,1-.92,2.02,2.879,2.879,0,0,1-2.4.968,4.368,4.368,0,0,1-2.514-1.081A7.183,7.183,0,0,1,.178,9.182C.1,8.816.058,8.44,0,8.069M14.4,4.177c-.021.025-.051.058-.078.094-.39.534-.788,1.062-1.166,1.6a35.432,35.432,0,0,0-3.177,5.341c-.115.246-.209.5-.313.754L9.73,12A38.221,38.221,0,0,0,15.238,4.69L14.4,4.177M9.466,3.934a1.05,1.05,0,1,0,1.087-1.05,1.056,1.056,0,0,0-1.087,1.05M4.247,9.313a1.055,1.055,0,1,0-1.084,1.037A1.061,1.061,0,0,0,4.247,9.313M7.628,3.034A1.053,1.053,0,1,0,6.552,4.076,1.055,1.055,0,0,0,7.628,3.034M3.382,6.4A1.051,1.051,0,1,0,2.356,5.35,1.053,1.053,0,0,0,3.382,6.4" transform="translate(0 0)" fill="#bfbfbf"/>
  </g>
</svg>
