<svg xmlns="http://www.w3.org/2000/svg" xmlns:xlink="http://www.w3.org/1999/xlink" width="24.408" height="28.183" viewBox="0 0 24.408 28.183">
  <defs>
    <clipPath id="clip-path">
      <rect id="Rectangle_3186" data-name="Rectangle 3186" width="24.408" height="28.183" fill="#707070"/>
    </clipPath>
  </defs>
  <g id="Group_7950" data-name="Group 7950" clip-path="url(#clip-path)">
    <path id="Path_12311" data-name="Path 12311" d="M11.132,3.955V2.773h1.8V3.941a12.126,12.126,0,1,1-1.8.015m7.985,5.109a9.844,9.844,0,0,0-6.75-2.89V8.042a7.966,7.966,0,0,1,7.536,7.6H22a9.849,9.849,0,0,0-2.885-6.579M11.7,6.182a9.841,9.841,0,0,0-6.138,2.5l.09.09a.67.67,0,0,1-.947.947l-.079-.079A9.831,9.831,0,0,0,2.26,15.8H4.744a.335.335,0,1,1,0,.67H2.266A9.843,9.843,0,0,0,4.741,22.6l.089-.09a.67.67,0,0,1,.947.947l-.083.082a9.827,9.827,0,0,0,6.158,2.385v-2.5a.335.335,0,0,1,.67,0v2.5a9.834,9.834,0,0,0,6.162-2.477l-.115-.114a.67.67,0,0,1,.947-.948l.107.108a9.834,9.834,0,0,0,2.384-6.174H19.475a.336.336,0,0,1-.335-.335H15.411a4.091,4.091,0,0,0-3.338-3.326V9.023l-.04,0A.334.334,0,0,1,11.7,8.69Zm10.729-1.65a1.434,1.434,0,0,0-2.023.045l-.99,1.033,1.034.99,1.541,1.475,1.034.989.99-1.034a1.436,1.436,0,0,0-.046-2.024ZM10.194,0h3.435a1.1,1.1,0,1,1,0,2.207H10.194a1.1,1.1,0,1,1,0-2.207" transform="translate(0 0)" fill="#707070" fill-rule="evenodd"/>
  </g>
</svg>
