<svg xmlns="http://www.w3.org/2000/svg" xmlns:xlink="http://www.w3.org/1999/xlink" width="15.571" height="15.575" viewBox="0 0 15.571 15.575">
  <defs>
    <clipPath id="clip-path">
      <rect id="Rectangle_6082" data-name="Rectangle 6082" width="15.571" height="15.575" fill="#bfbfbf"/>
    </clipPath>
  </defs>
  <g id="Group_13330" data-name="Group 13330" transform="translate(0 0)">
    <g id="Group_13329" data-name="Group 13329" transform="translate(0 0)" clip-path="url(#clip-path)">
      <path id="Path_14782" data-name="Path 14782" d="M7.78,0A7.787,7.787,0,1,1,0,7.843,7.8,7.8,0,0,1,7.78,0M1.261,7.772A6.523,6.523,0,1,0,7.8,1.265,6.523,6.523,0,0,0,1.261,7.772" transform="translate(0 0)" fill="#bfbfbf"/>
      <path id="Path_14783" data-name="Path 14783" d="M8.135,2.7a5.452,5.452,0,1,1-5.44,5.442A5.458,5.458,0,0,1,8.135,2.7M7.628,6.329c0,.594,0,1.189,0,1.784a.529.529,0,0,0,.209.452q1.036.78,2.075,1.557a.486.486,0,0,0,.428.093.506.506,0,0,0,.394-.408.5.5,0,0,0-.216-.523c-.563-.421-1.124-.844-1.692-1.257a.343.343,0,0,1-.163-.317c.007-1.043,0-2.087,0-3.13a.522.522,0,1,0-1.038,0q0,.876,0,1.751" transform="translate(-0.363 -0.364)" fill="#bfbfbf"/>
    </g>
  </g>
</svg>
