<svg xmlns="http://www.w3.org/2000/svg" xmlns:xlink="http://www.w3.org/1999/xlink" width="37" height="37" viewBox="0 0 37 37">
  <defs>
    <clipPath id="clip-path">
      <rect id="Rectangle_3161" data-name="Rectangle 3161" width="37" height="37" transform="translate(0 0)" fill="none"/>
    </clipPath>
  </defs>
  <g id="Group_7546" data-name="Group 7546" clip-path="url(#clip-path)">
    <path id="Path_14448" data-name="Path 14448" d="M18.5,0A18.5,18.5,0,1,0,37,18.5,18.5,18.5,0,0,0,18.5,0m7.936,15.5q.012.253.012.51A11.214,11.214,0,0,1,9.185,25.455a8.057,8.057,0,0,0,.94.055,7.912,7.912,0,0,0,4.9-1.688,3.947,3.947,0,0,1-3.683-2.739,3.951,3.951,0,0,0,1.781-.067A3.946,3.946,0,0,1,9.956,17.15c0-.017,0-.034,0-.05a3.908,3.908,0,0,0,1.786.493,3.945,3.945,0,0,1-1.221-5.264,11.194,11.194,0,0,0,8.127,4.12,3.945,3.945,0,0,1,6.719-3.6,7.887,7.887,0,0,0,2.5-.957,3.958,3.958,0,0,1-1.733,2.181,7.874,7.874,0,0,0,2.264-.621A8.008,8.008,0,0,1,26.436,15.5" transform="translate(0 0)" fill="#0798e5"/>
  </g>
</svg>
