<svg xmlns="http://www.w3.org/2000/svg" xmlns:xlink="http://www.w3.org/1999/xlink" width="22.546" height="17.495" viewBox="0 0 22.546 17.495">
  <defs>
    <clipPath id="clip-path">
      <rect id="Rectangle_6052" data-name="Rectangle 6052" width="22.546" height="17.495" transform="translate(0 0)" fill="#bfbfbf"/>
    </clipPath>
  </defs>
  <g id="Group_13340" data-name="Group 13340" transform="translate(0 0)">
    <g id="Group_13308" data-name="Group 13308" clip-path="url(#clip-path)">
      <path id="Path_14757" data-name="Path 14757" d="M0,16.263c.085-.451.139-.912.261-1.353a6.441,6.441,0,0,1,2.775-3.771,6.868,6.868,0,0,1,4.843-1,6.459,6.459,0,0,1,5.254,3.968,7.089,7.089,0,0,1,.526,3.381H.286c-.1,0-.191,0-.286,0V16.263" fill="#bfbfbf"/>
      <path id="Path_14758" data-name="Path 14758" d="M22.506,16.282h-.251c-2.338,0-4.675,0-7.013.005-.219,0-.274-.058-.3-.276a7.87,7.87,0,0,0-2.865-5.45c-.061-.052-.124-.1-.187-.153a6.464,6.464,0,0,1,6.9-1.091c2.732,1.221,4,3.673,3.711,6.965" fill="#bfbfbf"/>
      <path id="Path_14759" data-name="Path 14759" d="M10.948,4.467A4.341,4.341,0,0,1,8.956,8.073a3.919,3.919,0,0,1-5.073-.7A4.524,4.524,0,0,1,4.16,1.043a3.958,3.958,0,0,1,5.634.285,4.63,4.63,0,0,1,1.154,3.139" fill="#bfbfbf"/>
      <path id="Path_14760" data-name="Path 14760" d="M12.662,4.031A3.533,3.533,0,0,1,14.833.907a3.367,3.367,0,0,1,4.189,1.232,3.87,3.87,0,0,1-.829,5.283,3.426,3.426,0,0,1-4.976-1.053,4.2,4.2,0,0,1-.555-2.338" fill="#bfbfbf"/>
    </g>
  </g>
</svg>
