<svg xmlns="http://www.w3.org/2000/svg" xmlns:xlink="http://www.w3.org/1999/xlink" width="8.377" height="8.377" viewBox="0 0 8.377 8.377">
  <defs>
    <clipPath id="clip-path">
      <rect id="Rectangle_6023" data-name="Rectangle 6023" width="7.195" height="7.195" fill="none"/>
    </clipPath>
  </defs>
  <g id="Group_13748" data-name="Group 13748" transform="translate(-361.791 -236.518)">
    <circle id="Ellipse_388" data-name="Ellipse 388" cx="4.188" cy="4.188" r="4.188" transform="translate(361.791 236.518)" fill="#fff"/>
    <g id="Group_12783" data-name="Group 12783" transform="translate(362.381 237.108)" clip-path="url(#clip-path)">
      <path id="Path_14726" data-name="Path 14726" d="M3.6,0A3.6,3.6,0,1,1,1.054,1.054,3.586,3.586,0,0,1,3.6,0M3.65,1.63l-.576-.2-.576-.2a.1.1,0,0,1-.05-.144L2.665.745l.064-.1A3.084,3.084,0,0,0,1.1,1.8l.1-.031.381-.125a.1.1,0,0,1,.123.063.083.083,0,0,1,0,.022l.052.608.052.608a.1.1,0,0,1-.018.065l-.348.5-.349.5a.1.1,0,0,1-.136.024.093.093,0,0,1-.022-.021L.671,3.721.52,3.553c0,.015,0,.03,0,.045a3.064,3.064,0,0,0,.663,1.908l.007-.23.013-.4a.1.1,0,0,1,.1-.094l.022,0h0l.589.16L2.5,5.1a.1.1,0,0,1,.056.04l.349.5.351.5a.1.1,0,0,1-.024.136.109.109,0,0,1-.024.012l-.368.147-.214.086a3.092,3.092,0,0,0,2.061-.046l-.1-.035L4.219,6.3a.1.1,0,0,1-.059-.124.1.1,0,0,1,.01-.02L4.5,5.648l.333-.511A.1.1,0,0,1,4.89,5.1l.583-.18.583-.18a.1.1,0,0,1,.121.064.1.1,0,0,1,0,.022l.027.4v0a3.064,3.064,0,0,0,.466-1.6l-.039.051L6.39,4a.1.1,0,0,1-.136.018A.089.089,0,0,1,6.237,4l-.383-.475-.383-.475a.1.1,0,0,1-.021-.067l.009-.605.009-.61a.1.1,0,0,1,.1-.1l.022,0h0l.388.1.12.03A3.08,3.08,0,0,0,4.678.716l.007.01.222.333a.1.1,0,0,1-.027.135.108.108,0,0,1-.023.011l-.569.212-.572.212a.1.1,0,0,1-.066,0m.058.674a.1.1,0,0,0-.116,0l-.574.417-.574.417a.1.1,0,0,0-.035.109l.219.675.217.669a.1.1,0,0,0,.094.073H4.358A.1.1,0,0,0,4.451,4.6l.219-.675.218-.672a.1.1,0,0,0-.035-.112L4.28,2.72Z" transform="translate(0 0)" fill-rule="evenodd"/>
    </g>
  </g>
</svg>
